<?xml version="1.0" encoding="UTF-8"?>
<svg width="50px" height="50px" viewBox="0 0 50 50" version="1.1" xmlns="http://www.w3.org/2000/svg" xmlns:xlink="http://www.w3.org/1999/xlink">
    <!-- Generator: sketchtool 52.6 (67491) - http://www.bohemiancoding.com/sketch -->
    <title>7569940E-8B44-4CE7-A505-6B06EAF9EEA9</title>
    <desc>Created with sketchtool.</desc>
    <defs>
        <polygon id="path-1" points="0.000294117647 0.348076923 49.645098 0.348076923 49.645098 49.0380769 0.000294117647 49.0380769"></polygon>
    </defs>
    <g id="Page-1" stroke="none" stroke-width="1" fill="none" fill-rule="evenodd">
        <g id="Perfil-foto" transform="translate(-273.000000, -315.000000)">
            <g id="Group-2" transform="translate(48.000000, 315.000000)">
                <g id="icono-/-instabox_circle" transform="translate(225.000000, 0.000000)">
                    <g id="Group-34">
                        <path d="M24.7258824,13.6523077 C25.7964706,13.6523077 26.774902,13.2763462 27.5396078,12.6551923 C26.892549,11.3426923 25.9572549,10.2205769 24.82,9.39461538 C23.6533333,10.2426923 22.6984314,11.4032692 22.0523529,12.7609615 C22.7954902,13.3186538 23.7190196,13.6523077 24.7258824,13.6523077" id="Fill-1" fill="#5E5D5E"></path>
                        <g id="Group-5" transform="translate(0.000000, 0.613654)">
                            <mask id="mask-2" fill="white">
                                <use xlink:href="#path-1"></use>
                            </mask>
                            <g id="Clip-4"></g>
                            <path d="M34.4944118,40.6226923 C34.4944118,41.5861538 33.6561765,42.3342308 32.6738235,42.3342308 L16.9728431,42.3342308 C15.9895098,42.3342308 15.2453922,41.5861538 15.2453922,40.6226923 L15.2453922,38.6967308 C15.2453922,37.7332692 15.9895098,36.9246154 16.9728431,36.9246154 L19.0728431,36.9246154 L19.0728431,35.6082692 L19.0728431,35.0284615 C18.060098,34.8226923 17.0463725,33.2476923 17.0463725,33.2476923 L17.0463725,31.1967308 C17.0463725,30.8573077 17.2718627,30.5678846 17.6091176,30.4361538 L17.6091176,28.5948077 C17.6091176,28.3351923 17.7934314,28.1226923 18.0591176,28.1226923 C18.3257843,28.1226923 18.510098,28.3351923 18.510098,28.5948077 L18.510098,30.3005769 L19.8610784,30.3005769 L19.8610784,28.5948077 C19.8610784,28.3351923 20.0453922,28.1226923 20.3120588,28.1226923 C20.5767647,28.1226923 20.7610784,28.3351923 20.7610784,28.5948077 L20.7610784,30.3803846 C21.2110784,30.4688462 21.4365686,30.7976923 21.4365686,31.1967308 L21.4365686,33.2476923 C21.4365686,33.2476923 20.5365686,34.8198077 19.5228431,35.0284615 L19.5228431,35.6082692 L19.5228431,36.9246154 L24.8140196,36.9246154 L24.8140196,36.6034615 C23.8002941,36.3976923 22.9002941,34.8226923 22.9002941,34.8226923 L22.9002941,32.7707692 C22.9002941,32.4323077 23.087549,32.1419231 23.3826471,32.0101923 L24.4757843,31.9919231 L24.4757843,30.7419231 C24.4757843,30.4217308 24.7120588,30.1621154 25.0385294,30.1621154 C25.3640196,30.1621154 25.6012745,30.4217308 25.6012745,30.7419231 L25.6012745,31.9717308 L26.5904902,31.9553846 C26.969902,32.0428846 27.2904902,32.3726923 27.2904902,32.7707692 L27.2904902,34.8226923 C27.2904902,34.8226923 26.2767647,36.3938462 25.2640196,36.6034615 L25.2640196,36.9246154 L29.3404902,36.9246154 C29.3248039,36.8140385 29.3110784,36.8130769 29.3012745,36.7601923 C28.9757843,35.0630769 29.3434314,33.2592308 30.392451,31.3871154 C31.265,29.8313462 31.569902,28.4284615 31.3002941,27.2092308 C30.9434314,25.6063462 29.7032353,24.7746154 29.4904902,24.6419231 C28.1081373,25.4005769 26.5159804,25.8361538 24.8228431,25.8361538 C19.5326471,25.8361538 15.2267647,21.615 15.2267647,16.4246154 C15.2267647,16.0005769 15.2659804,15.5832692 15.3228431,15.1707692 C15.4483333,14.2621154 15.7032353,13.3948077 16.0728431,12.5880769 C16.2581373,12.1784615 16.4738235,11.7880769 16.7179412,11.4140385 C16.8081373,11.2736538 16.9032353,11.1313462 17.0022549,10.9967308 C17.6140196,10.1496154 18.3679412,9.38423077 19.2267647,8.77846154 C19.2238235,8.74769231 19.2208824,8.66211538 19.2208824,8.66211538 L19.3512745,8.66211538 C20.9061765,7.55826923 22.7885294,6.99480769 24.8228431,6.99480769 C27.6326471,6.99480769 30.1591176,8.20730769 31.9159804,10.1005769 C32.2238235,10.4342308 32.5189216,10.7880769 32.7777451,11.1640385 C33.0385294,11.5409615 33.2591176,11.9457692 33.4640196,12.3621154 C33.7816667,13.0101923 34.0326471,13.6957692 34.1914706,14.4159615 C34.3365686,15.0640385 34.4189216,15.7361538 34.4189216,16.4246154 C34.4189216,19.4630769 32.9404902,22.1688462 30.6551961,23.8909615 C31.260098,24.4332692 32.0757843,25.3976923 32.3963725,26.8428846 C32.7610784,28.4784615 32.4012745,30.2775 31.3287255,32.1880769 C30.4728431,33.7159615 30.1620588,35.1342308 30.4061765,36.4265385 C30.4346078,36.5736538 30.4895098,36.7044231 30.5473529,36.9246154 L32.6738235,36.9246154 C33.6561765,36.9246154 34.4944118,37.7332692 34.4944118,38.6967308 L34.4944118,40.6226923 Z M24.8228431,0.347692308 C11.1130392,0.347692308 0.000294117647,11.2476923 0.000294117647,24.6928846 C0.000294117647,38.1390385 11.1130392,49.0380769 24.8228431,49.0380769 C38.5316667,49.0380769 49.6453922,38.1390385 49.6453922,24.6928846 C49.6453922,11.2476923 38.5316667,0.347692308 24.8228431,0.347692308 Z" id="Fill-3" fill="#28ABB9" mask="url(#mask-2)"></path>
                        </g>
                        <path d="M21.1572549,21.5659615 C20.565098,20.3861538 20.1896078,19.0669231 20.0837255,17.6592308 C18.8190196,16.9823077 17.7494118,16.04 16.9729412,14.9140385 C16.7817647,15.5948077 16.6719608,16.3053846 16.6719608,17.0390385 C16.6719608,17.0553846 16.6758824,17.0707692 16.6758824,17.0861538 C17.4101961,19.0717308 19.0523529,20.69 21.1572549,21.5659615" id="Fill-6" fill="#5E5D5E"></path>
                        <path d="M20.057451,16.5530769 C20.0917647,15.3136538 20.334902,14.1338462 20.7515686,13.0434615 C20.1917647,12.4694231 19.7564706,11.7751923 19.4986275,10.9992308 C18.602549,11.7607692 17.8809804,12.7030769 17.3898039,13.7771154 C18.002549,14.8905769 18.9270588,15.8434615 20.057451,16.5530769" id="Fill-8" fill="#5E5D5E"></path>
                        <path d="M21.2266667,18.1834615 C21.4247059,19.6094231 21.9315686,20.9248077 22.6737255,22.0498077 C23.3315686,22.1978846 24.0188235,22.2748077 24.7256863,22.2748077 C25.5139216,22.2748077 26.2786275,22.1738462 27.0031373,21.9921154 C27.7403922,20.8584615 28.237451,19.5373077 28.4227451,18.1026923 C27.2943137,18.5575 26.0423529,18.8151923 24.7256863,18.8151923 C23.4854902,18.8151923 22.305098,18.5873077 21.2266667,18.1834615" id="Fill-10" fill="#5E5D5E"></path>
                        <path d="M28.5104902,16.8503846 C28.5104902,15.7311538 28.3144118,14.6648077 27.9663725,13.6782692 C27.0565686,14.3292308 25.9389216,14.7196154 24.7261765,14.7196154 C23.5781373,14.7196154 22.5163725,14.3696154 21.6369608,13.7792308 C21.3104902,14.7369231 21.1320588,15.7715385 21.1320588,16.8503846 C21.1320588,16.9417308 21.1379412,17.0330769 21.1408824,17.1234615 C22.2242157,17.5975 23.439902,17.8705769 24.7261765,17.8705769 C26.0879412,17.8705769 27.3722549,17.5667308 28.5016667,17.0369231 C28.5046078,16.9753846 28.5104902,16.9138462 28.5104902,16.8503846" id="Fill-12" fill="#5E5D5E"></path>
                        <path d="M29.5790196,16.4345192 C30.6888235,15.6999038 31.5858824,14.7220192 32.1623529,13.5864423 C31.6476471,12.5335577 30.907451,11.6056731 29.9976471,10.8691346 C29.7633333,11.6306731 29.3584314,12.3210577 28.8319608,12.9018269 C29.2701961,13.9960577 29.5309804,15.1874038 29.5790196,16.4345192" id="Fill-14" fill="#5E5D5E"></path>
                        <path d="M21.9383333,22.8752885 C20.0530392,22.35125 18.4128431,21.3070192 17.2314706,19.9320192 C18.2922549,22.6050962 20.7755882,24.5820192 23.7667647,24.96375 C23.8226471,24.9349038 23.8765686,24.9079808 23.9334314,24.8791346 C23.8618627,24.8560577 23.7883333,24.8349038 23.7197059,24.8070192 C23.0491176,24.2522115 22.4491176,23.6022115 21.9383333,22.8752885" id="Fill-16" fill="#5E5D5E"></path>
                        <path d="M29.5653922,17.5525 C29.4751961,18.9534615 29.1144118,20.2746154 28.5359804,21.4582692 C30.7085294,20.4784615 32.3457843,18.6957692 32.9487255,16.5467308 C32.9095098,15.9121154 32.8016667,15.2957692 32.6183333,14.7073077 C31.8712745,15.865 30.8193137,16.84 29.5653922,17.5525" id="Fill-18" fill="#5E5D5E"></path>
                        <path d="M28.3248039,11.8229808 C28.6669608,11.3489423 28.919902,10.8047115 29.0473529,10.21625 C28.2051961,9.71432692 27.2620588,9.35471154 26.2581373,9.17778846 C27.0806863,9.92298077 27.7806863,10.8200962 28.3248039,11.8229808" id="Fill-20" fill="#5E5D5E"></path>
                        <path d="M23.3814706,9.17769231 C22.3118627,9.36903846 21.3128431,9.76038462 20.4304902,10.3180769 C20.577549,10.9286538 20.8569608,11.4853846 21.2373529,11.9671154 C21.7912745,10.9046154 22.5206863,9.96038462 23.3814706,9.17769231" id="Fill-22" fill="#5E5D5E"></path>
                        <path d="M26.1061765,23.1634615 C25.6532353,23.2221154 25.1953922,23.2548077 24.7257843,23.2548077 C24.3316667,23.2548077 23.9404902,23.2326923 23.560098,23.1903846 C23.9444118,23.6076923 24.3659804,23.9807692 24.8208824,24.3115385 C25.2836275,23.9711538 25.7159804,23.5913462 26.1061765,23.1634615" id="Fill-24" fill="#5E5D5E"></path>
                        <path d="M32.6737255,38.6425 L16.9727451,38.6425 C16.6168627,38.6425 16.3707843,38.9617308 16.3707843,39.3107692 L16.3707843,41.2367308 C16.3707843,41.5857692 16.6168627,41.8444231 16.9727451,41.8444231 L32.6737255,41.8444231 C33.0286275,41.8444231 33.3688235,41.5857692 33.3688235,41.2367308 L33.3688235,39.3107692 C33.3688235,38.9617308 33.0286275,38.6425 32.6737255,38.6425" id="Fill-26" fill="#5E5D5E"></path>
                        <path d="M32.5721569,19.5073077 C31.4221569,21.0351923 29.7309804,22.2063462 27.7515686,22.8082692 C27.2319608,23.5601923 26.6133333,24.2351923 25.9211765,24.8073077 C25.8505882,24.8351923 25.7770588,24.8563462 25.7084314,24.8794231 C25.7633333,24.9082692 25.8172549,24.9351923 25.8731373,24.9621154 C29.025098,24.5601923 31.6152941,22.3967308 32.5721569,19.5073077" id="Fill-28" fill="#5E5D5E"></path>
                        <path d="M25.7082353,24.8794231 C25.7778431,24.8553846 25.8513725,24.8351923 25.9209804,24.8073077 C26.6131373,24.2351923 27.2327451,23.5601923 27.7513725,22.8082692 C29.7307843,22.2063462 31.4219608,21.0351923 32.5719608,19.5073077 C31.615098,22.3967308 29.024902,24.5601923 25.8729412,24.9621154 C25.8170588,24.9351923 25.7631373,24.9082692 25.7082353,24.8794231 M24.82,24.3111538 C24.3660784,23.9803846 23.9445098,23.6082692 23.5601961,23.19 C23.9405882,23.2323077 24.3307843,23.2553846 24.7258824,23.2553846 C25.1954902,23.2553846 25.6533333,23.2226923 26.1062745,23.1630769 C25.7160784,23.5919231 25.2837255,23.9717308 24.82,24.3111538 M23.7670588,24.9640385 C20.7758824,24.5823077 18.292549,22.6053846 17.2307843,19.9323077 C18.4131373,21.3063462 20.0533333,22.3515385 21.9386275,22.8755769 C22.4494118,23.6015385 23.0484314,24.2525 23.7190196,24.8073077 C23.7886275,24.8351923 23.8621569,24.8553846 23.9337255,24.8794231 C23.8768627,24.9082692 23.8219608,24.9351923 23.7670588,24.9640385 M16.6719608,17.0390385 C16.6719608,16.3053846 16.7817647,15.5948077 16.9729412,14.9140385 C17.7494118,16.04 18.8190196,16.9823077 20.0837255,17.6592308 C20.1896078,19.0669231 20.565098,20.3861538 21.1572549,21.5659615 C19.0523529,20.69 17.4101961,19.0717308 16.6758824,17.0861538 C16.6758824,17.0707692 16.6719608,17.0553846 16.6719608,17.0390385 M19.4984314,10.9996154 C19.7562745,11.7746154 20.1915686,12.4698077 20.7513725,13.0438462 C20.3347059,14.1342308 20.092549,15.3140385 20.0572549,16.5534615 C18.9268627,15.8438462 18.0023529,14.8909615 17.3896078,13.7765385 C17.8807843,12.7034615 18.6033333,11.7601923 19.4984314,10.9996154 M23.3817647,9.1775 C22.5209804,9.96019231 21.7915686,10.9053846 21.2366667,11.9669231 C20.8572549,11.4851923 20.5768627,10.9284615 20.4298039,10.3178846 C21.3131373,9.76019231 22.3121569,9.36884615 23.3817647,9.1775 M24.82,9.39480769 C25.9572549,10.2207692 26.8935294,11.3419231 27.5396078,12.6544231 C26.774902,13.2765385 25.7964706,13.6525 24.7258824,13.6525 C23.7190196,13.6525 22.7954902,13.3188462 22.0523529,12.7611538 C22.6984314,11.4034615 23.6533333,10.2428846 24.82,9.39480769 M28.4219608,18.1034615 C28.2376471,19.5371154 27.7405882,20.8592308 27.0033333,21.9919231 C26.2788235,22.1746154 25.5141176,22.2755769 24.7258824,22.2755769 C24.0180392,22.2755769 23.3317647,22.1976923 22.6739216,22.0496154 C21.9307843,20.9246154 21.424902,19.6092308 21.2268627,18.1832692 C22.3043137,18.5871154 23.4856863,18.815 24.7258824,18.815 C26.0415686,18.815 27.2945098,18.5573077 28.4219608,18.1034615 M24.7258824,17.8707692 C23.4405882,17.8707692 22.2239216,17.5976923 21.1405882,17.1226923 C21.1376471,17.0323077 21.1327451,16.9419231 21.1327451,16.8505769 C21.1327451,15.7717308 21.3101961,14.7371154 21.6366667,13.7794231 C22.5170588,14.3698077 23.5778431,14.7198077 24.7258824,14.7198077 C25.9386275,14.7198077 27.0572549,14.3294231 27.9670588,13.6784615 C28.3141176,14.665 28.5101961,15.7313462 28.5101961,16.8505769 C28.5101961,16.9140385 28.5043137,16.9746154 28.5023529,17.0371154 C27.3719608,17.5669231 26.0886275,17.8707692 24.7258824,17.8707692 M29.047451,10.2159615 C28.92,10.8053846 28.6670588,11.3486538 28.324902,11.8226923 C27.7807843,10.8207692 27.0807843,9.92269231 26.2582353,9.1775 C27.2611765,9.35442308 28.2052941,9.71403846 29.047451,10.2159615 M32.1631373,13.5861538 C31.5856863,14.7217308 30.6896078,15.6996154 29.5788235,16.4342308 C29.5307843,15.1871154 29.27,13.9957692 28.8317647,12.9015385 C29.3582353,12.3217308 29.7641176,11.6303846 29.997451,10.8688462 C30.9072549,11.6053846 31.647451,12.5332692 32.1631373,13.5861538 M32.9484314,16.5467308 C32.3454902,18.6957692 30.7082353,20.4784615 28.5356863,21.4582692 C29.1141176,20.2736538 29.474902,18.9534615 29.565098,17.5525 C30.8190196,16.84 31.8709804,15.865 32.6180392,14.7073077 C32.8023529,15.2957692 32.9092157,15.9111538 32.9484314,16.5467308" id="Fill-30" fill="#28ABB9"></path>
                        <path d="M33.3687255,41.2363462 C33.3687255,41.5853846 33.0285294,41.8440385 32.6736275,41.8440385 L16.9726471,41.8440385 C16.6167647,41.8440385 16.3706863,41.5853846 16.3706863,41.2363462 L16.3706863,39.3103846 C16.3706863,38.9613462 16.6167647,38.6421154 16.9726471,38.6421154 L32.6736275,38.6421154 C33.0285294,38.6421154 33.3687255,38.9613462 33.3687255,39.3103846 L33.3687255,41.2363462 Z" id="Fill-32" fill="#28ABB9"></path>
                    </g>
                </g>
            </g>
        </g>
    </g>
</svg>