<?xml version="1.0" encoding="UTF-8"?>
<svg width="50px" height="50px" viewBox="0 0 50 50" version="1.1" xmlns="http://www.w3.org/2000/svg" xmlns:xlink="http://www.w3.org/1999/xlink">
    <!-- Generator: sketchtool 52.6 (67491) - http://www.bohemiancoding.com/sketch -->
    <title>B30D07BC-3E56-4952-8F0C-94E73E336576</title>
    <desc>Created with sketchtool.</desc>
    <defs>
        <polygon id="path-1" points="0 0.348076923 49.6448039 0.348076923 49.6448039 49.0380769 0 49.0380769"></polygon>
    </defs>
    <g id="Page-1" stroke="none" stroke-width="1" fill="none" fill-rule="evenodd">
        <g id="Perfil-" transform="translate(-198.000000, -315.000000)">
            <g id="Group-2" transform="translate(48.000000, 315.000000)">
                <g id="icono-/-flow_-circle" transform="translate(150.000000, 0.000000)">
                    <g id="ic_flow">
                        <path d="M13.4808824,20.6675 C11.1887255,21.1030769 13.9102941,21.1992308 15.3053922,21.9396154 C16.7004902,22.68 15.7740196,20.2319231 13.4808824,20.6675" id="Fill-1" fill="#FFFFFF"></path>
                        <path d="M20.0921569,36.4305769 C20.5352941,38.6786538 20.6333333,36.0103846 21.3892157,34.6411538 C22.1441176,33.2728846 19.6470588,34.1815385 20.0921569,36.4305769" id="Fill-3" fill="#FFFFFF"></path>
                        <path d="M20.1482353,14.1621154 C18.2139216,12.8794231 20.0668627,14.8342308 20.5207843,16.3255769 C20.9727451,17.8169231 22.0835294,15.4448077 20.1482353,14.1621154" id="Fill-5" fill="#FFFFFF"></path>
                        <path d="M13.457549,29.89125 C12.1506863,31.7893269 14.1438235,29.9710577 15.6644118,29.5268269 C17.185,29.0825962 14.7644118,27.9931731 13.457549,29.89125" id="Fill-7" fill="#FFFFFF"></path>
                        <path d="M29.4966667,36.4524038 C31.4319608,37.7350962 29.5770588,35.7802885 29.1241176,34.2889423 C28.6711765,32.7975962 27.5613725,35.1706731 29.4966667,36.4524038" id="Fill-9" fill="#FFFFFF"></path>
                        <path d="M29.5527451,14.1843269 C29.1086275,11.93625 29.0105882,14.6045192 28.2556863,15.9727885 C27.5007843,17.3420192 29.9978431,16.4333654 29.5527451,14.1843269" id="Fill-11" fill="#FFFFFF"></path>
                        <path d="M36.1855882,20.72375 C37.4934314,18.8256731 35.5002941,20.6449038 33.9797059,21.0881731 C32.4591176,21.5333654 34.8787255,22.6218269 36.1855882,20.72375" id="Fill-13" fill="#FFFFFF"></path>
                        <g id="Group-17" transform="translate(0.000000, 0.613654)">
                            <mask id="mask-2" fill="white">
                                <use xlink:href="#path-1"></use>
                            </mask>
                            <g id="Clip-16"></g>
                            <path d="M38.2477451,29.1130769 C34.2193137,31.4505769 31.1497059,27.5765385 32.7967647,24.9563462 C34.4428431,22.3371154 36.2271569,24.0582692 38.880098,22.7015385 C41.5320588,21.3438462 41.6840196,19.5534615 41.6840196,19.5534615 C41.6840196,19.5534615 42.2781373,26.7784615 38.2477451,29.1130769 M31.130098,37.1303846 C26.5957843,35.9880769 27.2183333,31.1188462 30.2712745,30.4092308 C33.3251961,29.6996154 33.3457843,32.1534615 36.1997059,33.0323077 C39.0536275,33.9130769 40.4506863,32.7525 40.4506863,32.7525 C40.4506863,32.7525 35.662451,38.2736538 31.130098,37.1303846 M20.3153922,37.8611538 C17.9330392,33.9101923 21.8840196,30.8996154 24.5546078,32.515 C27.2261765,34.1294231 25.4712745,35.8794231 26.8555882,38.4813462 C28.2389216,41.0832692 30.0634314,41.2303846 30.0634314,41.2303846 C30.0634314,41.2303846 22.6967647,41.8130769 20.3153922,37.8611538 M13.4448039,16.3534615 C10.5908824,15.4746154 9.19284314,16.6351923 9.19284314,16.6351923 C9.19284314,16.6351923 13.9830392,11.1140385 18.5153922,12.2573077 C23.0477451,13.3996154 22.4261765,18.2669231 19.3722549,18.9775 C16.3193137,19.6871154 16.2987255,17.2332692 13.4448039,16.3534615 M16.6065686,40.0226923 C16.6065686,40.0226923 10.9761765,35.3265385 12.1408824,30.8794231 C13.3065686,26.4323077 18.2693137,27.0438462 18.9938235,30.0380769 C19.7183333,33.0323077 17.2163725,33.0534615 16.3183333,35.8525 C15.4222549,38.6505769 16.6065686,40.0226923 16.6065686,40.0226923 M7.96147059,29.8332692 C7.96147059,29.8332692 7.36735294,22.6082692 11.3967647,20.2736538 C15.4242157,17.9371154 18.4957843,21.8111538 16.8477451,24.4313462 C15.2006863,27.0505769 13.4173529,25.3303846 10.7644118,26.6871154 C8.11245098,28.0448077 7.96147059,29.8332692 7.96147059,29.8332692 M29.3291176,11.5255769 C31.7114706,15.4765385 27.7614706,18.4880769 25.089902,16.8717308 C22.4173529,15.2582692 24.1751961,13.5073077 22.789902,10.9053846 C21.4065686,8.30538462 19.5810784,8.15634615 19.5810784,8.15634615 C19.5810784,8.15634615 26.9477451,7.57365385 29.3291176,11.5255769 M33.0389216,9.365 C33.0389216,9.365 38.6673529,14.0630769 37.5026471,18.5073077 C36.3379412,22.9544231 31.3742157,22.3438462 30.6506863,19.3496154 C29.9261765,16.3553846 32.4281373,16.3342308 33.3242157,13.5361538 C34.2222549,10.7361538 33.0389216,9.365 33.0389216,9.365 M24.8222549,0.347692308 C11.1134314,0.347692308 -0.000294117647,11.2476923 -0.000294117647,24.6928846 C-0.000294117647,38.1390385 11.1134314,49.0380769 24.8222549,49.0380769 C38.5320588,49.0380769 49.6448039,38.1390385 49.6448039,24.6928846 C49.6448039,11.2476923 38.5320588,0.347692308 24.8222549,0.347692308" id="Fill-15" fill="#FFB439" mask="url(#mask-2)"></path>
                        </g>
                        <path d="M34.3394118,28.6746154 C32.9443137,27.9342308 33.8688235,30.3823077 36.1629412,29.9467308 C38.455098,29.5121154 35.7354902,29.415 34.3394118,28.6746154" id="Fill-18" fill="#FFFFFF"></path>
                    </g>
                </g>
            </g>
        </g>
    </g>
</svg>