<?xml version="1.0" encoding="UTF-8"?>
<svg width="151px" height="87px" viewBox="0 0 151 87" version="1.1" xmlns="http://www.w3.org/2000/svg" xmlns:xlink="http://www.w3.org/1999/xlink">
    <!-- Generator: Sketch 52.6 (67491) - http://www.bohemiancoding.com/sketch -->
    <title>Instacrops Logo</title>
    <desc>Created with Sketch.</desc>
    <defs>
        <polygon id="path-1" points="0 87 150.943396 87 150.943396 0 0 0"></polygon>
    </defs>
    <g id="Page-1" stroke="none" stroke-width="1" fill="none" fill-rule="evenodd">
        <g id="olvido-contraseña" transform="translate(-113.000000, -172.000000)">
            <g id="Instacrops-Logo" transform="translate(113.000000, 172.000000)">
                <g>
                    <path d="M80.8145553,59.0970103 C79.9490267,58.6358243 79.0610362,57.5209659 79.7896975,54.8193149 C81.0373765,50.1921473 82.0948787,49.1837916 82.0948787,49.1837916 C82.0948787,49.1837916 89.936448,55.0349259 97.627074,52.8439668 C105.315903,50.6523562 110.179036,44.5725831 113.426715,38.6556581 C120.501288,25.7704605 120.375202,11.6183041 120.375202,11.6183041 C120.375202,11.6183041 116.851992,14.1994474 110.978676,15.6259973 C105.658221,16.9177089 98.1544774,17.0509187 94.2736748,17.3587017 C86.1068583,18.0068374 80.5956274,24.0820508 78.6627134,29.6618801 C75.2730758,39.4532884 79.5542977,44.9969654 79.5542977,44.9969654 C79.5542977,44.9969654 80.8588799,40.3066128 85.2299491,35.973549 C89.6016173,31.6395081 93.4902066,29.2032996 97.5821503,27.6653616 C101.674993,26.1284007 109.192513,25.5144632 109.192513,25.5144632 C109.192513,25.5144632 97.8936208,28.6864196 92.3614256,33.4116217 C86.8295298,38.1371496 83.5662773,42.9317251 80.5177598,47.8087017 C77.4692423,52.6853527 77.0062294,55.6153167 77.0062294,55.6153167 C77.0062294,55.6153167 78.5539982,45.9831739 74.116442,37.8681244 C69.6779874,29.7534007 66.1215334,28.0132053 59.5096736,23.0196294 C52.8987122,18.0254021 39.7965858,15.2286478 39.7965858,15.2286478 C39.7965858,15.2286478 48.4213237,15.3791195 53.1919137,16.8366105 C57.9613058,18.2937758 62.5536987,20.7938208 67.8151542,25.4239196 C73.0751123,30.0549955 74.8555855,35.3179223 74.8555855,35.3179223 C74.8555855,35.3179223 79.4030548,28.6724146 74.9253669,17.7352066 C72.3743037,11.5033333 65.7031447,4.96530548 56.3353699,4.82134771 C51.8822402,4.75327718 43.3021264,5.1496496 37.1448937,4.06247529 C30.3473495,2.86228437 26.1637616,0.171055705 26.1637616,0.171055705 C26.1637616,0.171055705 26.8945193,16.3461119 35.7711291,30.5484254 C39.8469003,37.0695171 45.7777179,43.6596563 54.6962564,45.6008064 C63.6153938,47.5429335 72.2113807,40.2854425 72.2113807,40.2854425 C72.2113807,40.2854425 74.7750225,43.7270755 75.1862234,50.6894856 C75.5027853,56.0478414 71.5432165,58.3293441 69.7001497,59.0970103 L-5.98981731e-05,59.0970103 L-5.98981731e-05,61.008522 L150.581551,61.008522 L150.581551,59.0970103 L80.8145553,59.0970103 Z" id="Fill-1" fill="#FFFFFF"></path>
                    <mask id="mask-2" fill="white">
                        <use xlink:href="#path-1"></use>
                    </mask>
                    <g id="Clip-5"></g>
                    <polygon id="Fill-4" fill="#FFFFFF" mask="url(#mask-2)" points="0 87 3.77358491 87 3.77358491 66.4811321 0 66.4811321"></polygon>
                    <polygon id="Fill-6" fill="#FFFFFF" mask="url(#mask-2)" points="21.6635989 87 11.2479016 75.0287143 11.2479016 87 7.54716981 87 7.54716981 66.4811321 8.7101466 66.4811321 18.9407777 77.9554233 18.9407777 66.4811321 22.6415094 66.4811321 22.6415094 87"></polygon>
                    <path d="M31.4167441,77.845848 C30.8004117,77.6695585 29.6478369,77.3457548 28.5765567,76.5509639 C27.0759212,75.4614753 26.2452123,73.8722243 26.1651223,71.8999654 C26.0847311,70.2521717 26.5670782,68.810435 27.5320735,67.6915096 C28.9249185,66.1022586 30.934397,65.6603774 31.8990912,65.6603774 C34.6317892,65.6603774 36.1595228,66.7492045 37.5255707,67.7209463 L38.1419032,68.1628276 L36.1860188,71.6651333 L35.5160922,71.1941461 C34.3102245,70.3408126 33.5331097,69.7808538 31.8990912,69.7808538 C31.6573154,69.7808538 30.7200205,69.9869107 30.2373723,70.5465387 C30.076891,70.7228282 29.8893116,71.0463011 29.9161086,71.723676 C29.9429057,72.7830664 30.6128322,73.3718004 32.3275431,73.8431183 C32.5422206,73.901661 32.7027019,73.9605344 32.8634843,74.0197385 C34.6588874,74.6961211 36.0520335,75.6089895 37.0170288,76.7570208 C37.9814219,77.9344888 38.490566,79.3170214 38.490566,80.7891872 C38.490566,82.2315854 37.9275267,83.7328571 36.9899306,84.8802269 C35.8912511,86.2339843 34.3641197,87 32.6759049,87 C31.845497,87 30.7200205,86.9411266 29.3798663,86.4992454 C27.6922537,85.9108421 26.1919193,84.8802269 24.9056604,83.379286 L27.6383584,80.5540243 C29.621341,82.8788621 31.845497,82.8788621 32.6759049,82.8788621 C34.2301344,82.8788621 34.7389775,81.318717 34.7389775,80.7891872 C34.7389775,79.6709233 33.587306,78.6399773 31.6311206,77.9047214 L31.5507294,77.8756154 L31.4167441,77.845848 Z" id="Fill-7" fill="#FFFFFF" mask="url(#mask-2)"></path>
                    <path d="M143.869574,77.845848 C143.252941,77.6695585 142.100968,77.3457548 141.029387,76.5509639 C139.529053,75.4614753 138.698344,73.8722243 138.618254,71.8999654 C138.537862,70.2521717 139.020209,68.810435 139.984603,67.6915096 C141.37805,66.1022586 143.387528,65.6603774 144.351921,65.6603774 C147.084921,65.6603774 148.612052,66.7492045 149.978702,67.7209463 L150.594733,68.1628276 L148.638849,71.6651333 L147.969224,71.1941461 C146.763055,70.3408126 145.98594,69.7808538 144.351921,69.7808538 C144.110447,69.7808538 143.173152,69.9869107 142.690504,70.5465387 C142.530022,70.7228282 142.342443,71.0463011 142.369541,71.723676 C142.396037,72.7830664 143.066265,73.3718004 144.780373,73.8431183 C144.995352,73.901661 145.155532,73.9605344 145.316616,74.0197385 C147.111416,74.6961211 148.505165,75.6089895 149.47016,76.7570208 C150.434252,77.9344888 150.943396,79.3170214 150.943396,80.7891872 C150.943396,82.2315854 150.380658,83.7328571 149.442761,84.8802269 C148.344081,86.2339843 146.816649,87 145.129036,87 C144.298628,87 143.173152,86.9411266 141.832998,86.4992454 C140.145686,85.9108421 138.64475,84.8802269 137.358491,83.379286 L140.09149,80.5540243 C142.074773,82.8788621 144.298628,82.8788621 145.129036,82.8788621 C146.682965,82.8788621 147.192109,81.318717 147.192109,80.7891872 C147.192109,79.6709233 146.040437,78.6399773 144.084252,77.9047214 L144.003861,77.8756154 L143.869574,77.845848 Z" id="Fill-8" fill="#FFFFFF" mask="url(#mask-2)"></path>
                    <polygon id="Fill-9" fill="#FFFFFF" mask="url(#mask-2)" points="53.5849057 66.4811321 53.5849057 70.5791167 48.3261911 70.5791167 48.3261911 87 44.5311075 87 44.5311075 70.5791167 39.245283 70.5791167 39.245283 66.4811321"></polygon>
                    <polygon id="Fill-10" fill="#FFFFFF" mask="url(#mask-2)" points="62.0335827 66.4811321 70.9433962 87 66.7708438 87 61.3884175 74.530733 55.5471465 87 51.3207547 87 60.9304802 66.4811321"></polygon>
                    <path d="M84.1820235,70.9804198 C80.5592708,68.3945495 75.098352,70.8040429 75.098352,76.3298584 C75.098352,82.1208998 80.8789519,84.442535 84.3951442,81.5029201 L86.7924528,84.5310538 C85.1138279,86.0593232 82.9562801,87 80.6122517,87 C75.2845333,87 70.9433962,82.2084277 70.9433962,76.3298584 C70.9433962,70.4512891 75.2845333,65.6603774 80.6122517,65.6603774 C82.8497198,65.6603774 84.9273473,66.5128657 86.5790328,67.9238809 L84.1820235,70.9804198 Z" id="Fill-11" fill="#FFFFFF" mask="url(#mask-2)"></path>
                    <path d="M93.6145204,70.5733441 L93.6145204,86.9714245 L89.8113208,86.9714245 L89.8113208,66.4811321 L97.2559077,66.4811321 C100.407584,66.4811321 102.96086,69.2578846 102.96086,72.6488467 C102.96086,75.1326181 101.602247,77.2662571 99.6189778,78.2312558 L103.396226,87 L99.3472553,87 L95.788606,78.786672 L95.788606,74.69446 L97.2559077,74.69446 C98.315015,74.69446 99.1573548,73.7885831 99.1573548,72.6488467 C99.1573548,71.5084534 98.315015,70.5733441 97.2559077,70.5733441 L93.6145204,70.5733441 Z" id="Fill-12" fill="#FFFFFF" mask="url(#mask-2)"></path>
                    <path d="M108.042792,76.3303538 C108.042792,79.8869025 110.691824,82.7673503 113.962264,82.7673503 C117.232704,82.7673503 119.881737,79.8869025 119.881737,76.3303538 C119.881737,72.7738051 117.232704,69.8930271 113.962264,69.8930271 C110.691824,69.8930271 108.042792,72.7738051 108.042792,76.3303538 M123.773585,76.3303538 C123.773585,82.2088321 119.368149,87 113.962264,87 C108.556379,87 104.150943,82.2088321 104.150943,76.3303538 C104.150943,70.4518755 108.556379,65.6603774 113.962264,65.6603774 C119.368149,65.6603774 123.773585,70.4518755 123.773585,76.3303538" id="Fill-13" fill="#FFFFFF" mask="url(#mask-2)"></path>
                    <path d="M131.918776,74.706375 C132.903025,74.706375 133.732111,73.7988913 133.732111,72.6575472 C133.732111,71.5165319 132.903025,70.5791167 131.918776,70.5791167 L129.664697,70.5791167 L129.664697,74.706375 L131.918776,74.706375 Z M131.918776,66.4811321 C134.923632,66.4811321 137.358491,69.2621306 137.358491,72.6575472 C137.358491,76.0532927 134.923632,78.8046886 131.918776,78.8046886 L129.664697,78.8046886 L129.664697,87 L126.037736,87 L126.037736,66.4811321 L131.918776,66.4811321 Z" id="Fill-14" fill="#FFFFFF" mask="url(#mask-2)"></path>
                    <path d="M90.5768353,56.5921842 C90.5690371,56.6187784 90.5600391,56.6450442 90.5522408,56.6719667 L90.5798347,56.6719667 C90.5786349,56.6453725 90.5780351,56.6187784 90.5768353,56.5921842" id="Fill-15" fill="#FFFFFF" mask="url(#mask-2)"></path>
                    <path d="M0,56.6320755 L7.35250414,56.6320755 C7.91143819,44.0378765 13.8057616,32.9585359 22.6415094,25.9775124 C21.69878,23.4397899 20.9215265,20.7919732 20.3212235,18.0566038 C8.54374932,26.337524 0.59939713,40.4616089 0,56.6320755" id="Fill-16" fill="#FFFFFF" mask="url(#mask-2)"></path>
                    <path d="M14.3396226,56.6320755 L20.7849165,56.6320755 C21.2873357,49.3953386 24.5473164,42.9878517 29.4339623,38.6173651 C28.1325697,36.7948374 26.9348654,34.8613308 25.8514296,32.8301887 C19.2498477,38.4731902 14.8665279,46.9941583 14.3396226,56.6320755" id="Fill-17" fill="#FFFFFF" mask="url(#mask-2)"></path>
                    <path d="M33.034933,42.6792453 C29.3713615,46.0662146 26.8938849,51.019024 26.4150943,56.6320755 L31.7182589,56.6320755 C32.2082252,52.5712883 34.1713254,49.0379664 36.9811321,46.7357279 C35.6000506,45.4847777 34.2824942,44.1291953 33.034933,42.6792453" id="Fill-18" fill="#FFFFFF" mask="url(#mask-2)"></path>
                    <path d="M143.618771,56.6320755 L150.943396,56.6320755 C149.091682,41.0327749 140.458492,27.7705265 128.394193,20.5188679 C128.050963,23.3274478 127.512581,26.0625047 126.792453,28.7044324 C135.626158,34.7856043 141.938076,44.8664293 143.618771,56.6320755" id="Fill-19" fill="#FFFFFF" mask="url(#mask-2)"></path>
                    <path d="M129.536868,56.6320755 L135.849057,56.6320755 C134.370675,47.8135966 129.914944,40.2204263 123.737285,35.2924528 C122.85994,37.4723391 121.863141,39.5683322 120.754717,41.5643887 C125.048084,45.1955271 128.215051,50.4938339 129.536868,56.6320755" id="Fill-20" fill="#FFFFFF" mask="url(#mask-2)"></path>
                    <path d="M113.962264,51.0297078 C115.959904,52.4264773 117.582623,54.3593388 118.636993,56.6320755 L124.528302,56.6320755 C123.283258,52.6472211 120.860198,49.2159779 117.687295,46.7830189 C116.522439,48.2782152 115.278313,49.696008 113.962264,51.0297078" id="Fill-21" fill="#FFFFFF" mask="url(#mask-2)"></path>
                </g>
            </g>
        </g>
    </g>
</svg>