<?xml version="1.0" encoding="UTF-8"?>
<svg width="27px" height="27px" viewBox="0 0 27 27" version="1.1" xmlns="http://www.w3.org/2000/svg" xmlns:xlink="http://www.w3.org/1999/xlink">
    <!-- Generator: sketchtool 52.6 (67491) - http://www.bohemiancoding.com/sketch -->
    <title>4C95976E-B94B-4441-A681-F899B2932418</title>
    <desc>Created with sketchtool.</desc>
    <g id="Symbols" stroke="none" stroke-width="1" fill="none" fill-rule="evenodd">
        <g id="icono-/-Mapa" fill="#8E8E93">
            <path d="M10.2514894,10.4301282 L4,8.41206432 L4,24.7780509 L10.2514894,26.8976576 L10.2514894,10.5324706 L10.2514894,10.4301282 Z M22.8299309,5.95344843 C22.8299309,2.66250111 20.0743506,0 16.6960044,0 C13.4193343,0 10.6724919,2.66250111 10.6724919,5.95344843 L10.6724919,6.49554325 C10.6724919,9.68414818 16.6960044,17.1295567 16.6960044,17.1295567 C16.6960044,17.1295567 22.8299309,9.68414818 22.8299309,6.49554325 L22.7203114,6.49554325 C22.8299309,6.27486748 22.8299309,6.07178181 22.8299309,5.95344843 Z M16.6960044,4.15526074 C18.0686313,4.15526074 19.1227262,5.22345939 19.1227262,6.49554325 C19.1227262,7.86916995 18.0686313,8.93736859 16.6960044,8.93736859 C15.4242593,8.93736859 14.3709588,7.86916995 14.3709588,6.49554325 C14.3709588,5.22345939 15.4242593,4.15526074 16.6960044,4.15526074 Z M11.0942887,26.8976576 L17.1170069,24.8795937 L17.1170069,19.3507063 C14.3709588,17.4341852 12.7790929,14.890817 11.0942887,12.0244307 L11.0942887,26.8976576 Z M14.8589245,24.9819361 L24,27 L24,10.6340134 L22.8838216,10.4301282 C20.6904837,13.2965146 17.2166149,16.4851195 15.171076,18.1801652 L14.8589245,18.2992982 L14.8589245,24.9819361 Z" id="Fill-1"></path>
        </g>
    </g>
</svg>