<?xml version="1.0" encoding="UTF-8"?>
<svg width="232px" height="211px" viewBox="0 0 232 211" version="1.1" xmlns="http://www.w3.org/2000/svg" xmlns:xlink="http://www.w3.org/1999/xlink">
    <!-- Generator: sketchtool 52.6 (67491) - http://www.bohemiancoding.com/sketch -->
    <title>A0F8D030-B593-4C42-BBE8-C25081B74119</title>
    <desc>Created with sketchtool.</desc>
    <g id="Page-1" stroke="none" stroke-width="1" fill="none" fill-rule="evenodd">
        <g id="Soil-happy" transform="translate(-72.000000, -146.000000)">
            <g id="Group-5" transform="translate(72.000000, 146.000000)">
                <rect id="Combined-Shape" fill="#FFFFFF" x="0" y="0" width="232" height="211" rx="6"></rect>
                <g id="icono-/-feliz" transform="translate(66.000000, 20.000000)">
                    <g id="Group-13">
                        <path d="M60.2410101,39.6765657 C60.2410101,35.7684848 63.4086869,32.6008081 67.3167677,32.6008081 C71.2248485,32.6008081 74.3935354,35.7684848 74.3935354,39.6765657" id="Stroke-1" stroke="#6DAC3A" stroke-width="3" stroke-linecap="round" stroke-linejoin="round"></path>
                        <path d="M24.8874747,39.6765657 C24.8874747,35.7684848 28.0551515,32.6008081 31.9632323,32.6008081 C35.8713131,32.6008081 39.04,35.7684848 39.04,39.6765657" id="Stroke-3" stroke="#6DAC3A" stroke-width="3" stroke-linecap="round" stroke-linejoin="round"></path>
                        <path d="M58.6123232,49.6511111 C58.6123232,53.2460606 54.769899,56.1612121 50.0294949,56.1612121 C45.290101,56.1612121 41.4466667,53.2460606 41.4466667,49.6511111" id="Stroke-5" stroke="#6DAC3A" stroke-width="3" stroke-linecap="round" stroke-linejoin="round"></path>
                        <path d="M93.7409091,27.1223232 C97.2893939,33.9374747 99.2944444,41.6849495 99.2944444,49.900101 C99.2944444,77.179899 77.180303,99.2950505 49.8994949,99.2950505 C22.619697,99.2950505 0.505555556,77.179899 0.505555556,49.900101 C0.505555556,22.620303 22.619697,0.505151515 49.8994949,0.505151515 C60.7489899,0.505151515 70.7813131,4.00313131 78.9308081,9.93242424" id="Stroke-7" stroke="#6DAC3A" stroke-width="3" stroke-linecap="round" stroke-linejoin="round"></path>
                        <path d="M27.6393939,50.5754545 C27.6393939,52.0310101 25.1050505,53.2108081 21.9787879,53.2108081 C18.8525253,53.2108081 16.3171717,52.0310101 16.3171717,50.5754545 C16.3171717,49.119899 18.8525253,47.940101 21.9787879,47.940101 C25.1050505,47.940101 27.6393939,49.119899 27.6393939,50.5754545" id="Fill-9" fill-opacity="0.519729393" fill="#6DAC3A"></path>
                        <path d="M78.5444444,53.2108081 C75.4181818,53.2108081 72.8828283,52.0310101 72.8828283,50.5754545 C72.8828283,49.119899 75.4181818,47.940101 78.5444444,47.940101 C81.6707071,47.940101 84.2050505,49.119899 84.2050505,50.5754545 C84.2050505,52.0310101 81.6707071,53.2108081 78.5444444,53.2108081 Z" id="Fill-11" fill-opacity="0.519729393" fill="#6DAC3A"></path>
                    </g>
                </g>
                <text id="Felicitaciones-no-ha" font-family="NotoSansCJKjp-Medium, Noto Sans CJK JP" font-size="18" font-weight="400" letter-spacing="-0.4341177" fill="#4A4A4A">
                    <tspan x="48.1900005" y="156">Felicitaciones no </tspan>
                    <tspan x="71.3136473" y="183">hay Alertas</tspan>
                </text>
            </g>
        </g>
    </g>
</svg>