<?xml version="1.0" encoding="UTF-8"?>
<svg width="10px" height="20px" viewBox="0 0 10 20" version="1.1" xmlns="http://www.w3.org/2000/svg" xmlns:xlink="http://www.w3.org/1999/xlink">
    <!-- Generator: Sketch 52.6 (67491) - http://www.bohemiancoding.com/sketch -->
    <title>icono / password</title>
    <desc>Created with Sketch.</desc>
    <defs>
        <polygon id="path-1" points="9.26640927e-05 0.218018797 8.38401544 0.218018797 8.38401544 9.06192857 9.26640927e-05 9.06192857"></polygon>
    </defs>
    <g id="icono-/-password" stroke="none" stroke-width="1" fill="none" fill-rule="evenodd">
        <g id="Group-6">
            <g id="Group-3" transform="translate(0.357143, 0.000000)">
                <mask id="mask-2" fill="white">
                    <use xlink:href="#path-1"></use>
                </mask>
                <g id="Clip-2"></g>
                <path d="M2.05237066,2.58978571 C2.1144556,2.51769925 2.18001544,2.44854511 2.24858687,2.38305639 C2.31692664,2.31732331 2.38827799,2.25501128 2.46264093,2.19660902 C2.57383784,2.10888346 2.69128958,2.0292218 2.81430116,1.95884586 C2.93708108,1.88846992 3.06542085,1.82713534 3.19816216,1.77581955 C3.24240927,1.75871429 3.28711969,1.74283083 3.3325251,1.72792481 C3.42287259,1.69811278 3.51530502,1.67318797 3.60959073,1.65266165 C3.79769884,1.61209774 3.9925251,1.59083835 4.19198456,1.59083835 C4.79082625,1.59083835 5.34681081,1.78290602 5.80827799,2.11157143 C5.84673359,2.13893985 5.88449421,2.16728571 5.92155985,2.19660902 C5.99569112,2.25501128 6.06727413,2.31732331 6.1356139,2.38305639 C6.20418533,2.44854511 6.26951351,2.51769925 6.33183012,2.58978571 C6.42518919,2.69803759 6.51113514,2.81337594 6.58897297,2.93506767 C6.64086486,3.01619549 6.68928185,3.10025564 6.73376062,3.18651504 C6.77823938,3.2730188 6.81901158,3.36196617 6.8556139,3.45311278 C7.00179151,3.81794361 7.08264093,4.21893985 7.08264093,4.63997368 C7.08264093,5.06100752 7.00179151,5.46200376 6.8556139,5.82683459 C6.81901158,5.9179812 6.77823938,6.00692857 6.73376062,6.09343233 C6.68928185,6.17969173 6.64086486,6.26375188 6.58897297,6.34463534 C6.51113514,6.46632707 6.42518919,6.58190977 6.33183012,6.69016165 C6.26951351,6.76224812 6.20418533,6.83140226 6.1356139,6.89689098 C6.06727413,6.96262406 5.99569112,7.02469173 5.92155985,7.08333835 C5.88449421,7.11266165 5.84673359,7.14100752 5.80827799,7.16837594 C5.34681081,7.49704135 4.79082625,7.68910902 4.19198456,7.68910902 C3.9925251,7.68910902 3.79769884,7.66784962 3.60959073,7.62704135 C3.51530502,7.6067594 3.42287259,7.58159023 3.3325251,7.55202256 C3.28711969,7.53711654 3.24240927,7.52123308 3.19816216,7.50412782 C3.06542085,7.45281203 2.93708108,7.39147744 2.81430116,7.3211015 C2.69128958,7.25072556 2.57383784,7.17106391 2.46264093,7.08333835 C2.38827799,7.02469173 2.31692664,6.96262406 2.24858687,6.89689098 C2.18001544,6.83140226 2.1144556,6.76224812 2.05237066,6.69016165 C1.58580695,6.14865789 1.30132819,5.4292594 1.30132819,4.63997368 C1.30132819,3.85068797 1.58580695,3.13128947 2.05237066,2.58978571 M1.68379923,8.18345113 C2.10356757,8.51431579 2.58403089,8.76356391 3.10433977,8.91066917 C3.4513668,9.00865789 3.81576834,9.06192857 4.19198456,9.06192857 C4.56843243,9.06192857 4.93283398,9.00865789 5.279861,8.91066917 C5.79993822,8.76356391 6.2806332,8.51431579 6.70016988,8.18345113 C7.15028571,7.82839474 7.52951351,7.37950376 7.81399228,6.86512406 C7.9717529,6.58019925 8.10101931,6.27572556 8.19553668,5.9548797 C8.31808494,5.53946617 8.38410811,5.09790602 8.38410811,4.63997368 C8.38410811,4.18204135 8.31808494,3.7404812 8.19553668,3.32506767 C8.09360618,2.97880827 7.95229344,2.65087594 7.7771583,2.34713534 C7.42711969,1.73916541 6.94202317,1.22747368 6.36588417,0.858244361 C6.25051737,0.784447368 6.13167568,0.716270677 6.00959073,0.654203008 C5.88727413,0.591890977 5.76194595,0.535932331 5.63337452,0.486327068 C5.37669498,0.387116541 5.10796911,0.313808271 4.83044015,0.269090226 C4.62240927,0.235368421 4.40905019,0.218018797 4.19198456,0.218018797 C3.97491892,0.218018797 3.76179151,0.235368421 3.55376062,0.269090226 C2.85970656,0.380763158 2.22194595,0.672041353 1.68379923,1.09649624 C1.57630888,1.18128947 1.47275676,1.27170301 1.37337452,1.3667594 C1.27422394,1.46206015 1.17924324,1.56200376 1.08912741,1.66683459 C0.818316602,1.98083835 0.590131274,2.3361391 0.413374517,2.72296241 C0.354532819,2.8517406 0.301482625,2.98418421 0.254455598,3.11956015 C0.0897451737,3.5936203 9.26640927e-05,4.10580075 9.26640927e-05,4.63997368 C9.26640927e-05,4.79245489 0.00727413127,4.94346992 0.0216370656,5.09204135 C0.0431814672,5.31514286 0.0802471042,5.53311278 0.131907336,5.74497368 C0.149281853,5.81559398 0.168046332,5.88572556 0.188432432,5.9548797 C0.270208494,6.2317406 0.377003861,6.49711654 0.50603861,6.74758647 C0.79630888,7.31157143 1.19962934,7.80127068 1.68379923,8.18345113" id="Fill-1" fill="#FFFFFF" mask="url(#mask-2)"></path>
            </g>
            <path d="M7.22975002,16.7929625 C7.3791382,16.7929625 7.5,16.6732305 7.5,16.5257919 L7.5,15.3732473 C7.5,15.2258087 7.3791382,15.1060766 7.22975002,15.1060766 L5.56420939,15.1060766 L5.56420939,9.28571429 C5.18686035,9.37477117 4.79374672,9.4232577 4.38937267,9.4232577 C3.98474839,9.4232577 3.59163476,9.37477117 3.21428571,9.28571429 L3.21428571,19.7328293 C3.21428571,19.880268 3.33539774,20 3.48478593,20 L4.38937267,20 L5.56420939,20 L7.22975002,20 C7.3791382,20 7.5,19.880268 7.5,19.7328293 L7.5,18.5802848 C7.5,18.4328462 7.3791382,18.3131141 7.22975002,18.3131141 L5.56420939,18.3131141 L5.56420939,16.7929625 L7.22975002,16.7929625 Z" id="Fill-4" fill="#FFFFFF"></path>
        </g>
    </g>
</svg>