<?xml version="1.0" encoding="UTF-8"?>
<svg width="27px" height="27px" viewBox="0 0 27 27" version="1.1" xmlns="http://www.w3.org/2000/svg" xmlns:xlink="http://www.w3.org/1999/xlink">
    <!-- Generator: Sketch 52.6 (67491) - http://www.bohemiancoding.com/sketch -->
    <title>icono / Perfil</title>
    <desc>Created with Sketch.</desc>
    <g id="icono-/-Perfil" stroke="none" stroke-width="1" fill="none" fill-rule="evenodd">
        <path d="M26.6238924,23.5637316 C25.8341401,18.4481462 22.2452937,19.6006038 17.0931352,16.4462315 L17.0931352,14.9711762 C18.5651805,14.1330251 18.6755839,12.6745519 19.0855485,11.1987428 C19.2813305,11.1987428 19.5529229,10.8806675 19.5529229,10.5625922 C19.5529229,10.461592 19.7715216,9.68449338 19.7884501,9.62268728 C19.7884501,9.62193355 20.3971408,7.92980312 19.8907573,7.72931016 C19.7928662,7.52806347 19.4896249,7.83031038 19.4896249,7.83031038 C19.4896249,7.83031038 20.1167162,4.67819926 19.5926681,3.42097273 C18.6763199,-0.0499674144 10.8693277,-0.988364913 10.8693277,1.10701263 C7.48067941,2.1637462 8.08716207,5.4161038 8.61121019,7.83031038 C8.61121019,7.83031038 8.30060863,7.52806347 7.99000708,7.83031038 C7.6786695,8.24863215 8.08789809,9.20436551 8.18652512,9.62268728 C8.20345364,9.68524712 8.59648974,10.461592 8.59648974,10.5625922 C8.59648974,10.8806675 8.61636235,11.1987428 8.81214437,11.1987428 C9.22137297,12.6745519 8.99688606,14.1330251 10.4689314,14.9711762 L10.4689314,16.4462315 C4.58075018,19.6006038 1.94726115,18.4443775 1.15677282,23.5584554 C1.14352442,23.6458885 1,27 1,27 L27,27 C27,27 26.6378769,23.6511646 26.6238924,23.5637316 Z" id="Iconos-/-Perfil" fill="#8E8E93"></path>
    </g>
</svg>