<?xml version="1.0" encoding="UTF-8"?>
<svg width="50px" height="50px" viewBox="0 0 50 50" version="1.1" xmlns="http://www.w3.org/2000/svg" xmlns:xlink="http://www.w3.org/1999/xlink">
    <!-- Generator: Sketch 52.6 (67491) - http://www.bohemiancoding.com/sketch -->
    <title>icono / skycrops_circle</title>
    <desc>Created with Sketch.</desc>
    <defs>
        <polygon id="path-1" points="0 0.524038462 49.4652941 0.524038462 49.4652941 49.0382692 0 49.0382692"></polygon>
    </defs>
    <g id="icono-/-skycrops_circle" stroke="none" stroke-width="1" fill="none" fill-rule="evenodd">
        <g id="Group-10">
            <polygon id="Fill-1" fill="#6DAC3A" points="35.5015686 23.9492308 35.5015686 14.1713462 13.9329412 14.1713462 13.9329412 23.9723077 24.7329412 16.1194231"></polygon>
            <g id="Group-9" transform="translate(0.000000, 0.437596)">
                <path d="M8.05058824,29.1366346 L8.05058824,34.6645192 L20.0270588,27.8318269 L20.1554902,28.4241346 C20.1868627,28.5279808 20.9721569,31.0375962 24.7545098,31.0375962 C28.5368627,31.0375962 29.3329412,28.5279808 29.3652941,28.42125 L29.5378431,27.8375962 L29.9692157,28.1395192 L41.3839216,34.6645192 L41.3839216,29.1366346 L24.7172549,16.8789423 L8.05058824,29.1366346 Z" id="Fill-2" fill="#6DAC3A"></path>
                <path d="M24.732549,31.9992308 C21.3472549,31.9992308 19.9237255,30.1809615 19.4129412,29.2396154 L13.932549,32.3434615 L13.932549,34.8876923 L35.5011765,34.8876923 L35.5011765,32.3261538 L30.0521569,29.2396154 C29.5413725,30.1809615 28.1188235,31.9992308 24.732549,31.9992308" id="Fill-4" fill="#6DAC3A"></path>
                <g id="Group-8">
                    <mask id="mask-2" fill="white">
                        <use xlink:href="#path-1"></use>
                    </mask>
                    <g id="Clip-7"></g>
                    <path d="M39.4231373,34.5469231 L39.4231373,38.7344231 L10.0113725,38.7344231 L10.0113725,34.5642308 L7.07019608,36.3305769 L7.07019608,28.6517308 L10.0113725,26.3853846 L10.0113725,10.8498077 L39.4231373,10.8498077 L39.4231373,26.3623077 L42.3643137,28.6517308 L42.3643137,36.3305769 L39.4231373,34.5469231 Z M24.7329412,0.523846154 C11.0731373,0.523846154 -0.000392156863,11.3844231 -0.000392156863,24.7815385 C-0.000392156863,38.1776923 11.0731373,49.0382692 24.7329412,49.0382692 C38.3927451,49.0382692 49.4652941,38.1776923 49.4652941,24.7815385 C49.4652941,11.3844231 38.3927451,0.523846154 24.7329412,0.523846154 Z" id="Fill-6" fill="#6DAC3A" mask="url(#mask-2)"></path>
                </g>
            </g>
        </g>
    </g>
</svg>