<?xml version="1.0" encoding="UTF-8"?>
<svg width="27px" height="27px" viewBox="0 0 27 27" version="1.1" xmlns="http://www.w3.org/2000/svg" xmlns:xlink="http://www.w3.org/1999/xlink">
    <!-- Generator: sketchtool 52.6 (67491) - http://www.bohemiancoding.com/sketch -->
    <title>6C4A26C1-4307-42F1-BC7A-70D53C70910E</title>
    <desc>Created with sketchtool.</desc>
    <g id="Symbols" stroke="none" stroke-width="1" fill="none" fill-rule="evenodd">
        <g id="icono-/-soil" fill="#8E8E93">
            <g id="Icono-/-soil" transform="translate(0.500000, 0.000000)">
                <path d="M24.3116675,6.964142 C22.095672,4.13810632 18.8613276,2.1746617 15.1123754,1.73286646 C11.4099941,1.29753259 7.87759632,2.42665459 5.12526002,4.610593 L4.21091931,3.27470759 C7.26829458,0.862198713 11.1849017,-0.379997022 15.2901208,0.102989356 C19.4457915,0.59243709 23.0340743,2.76264511 25.5,5.88590318 L24.3116675,6.964142 Z M17.4999069,9.09235121 C17.0008228,9.40088097 16.4714676,9.74090984 15.9289174,10.1083995 C15.4049955,9.88305968 14.8430408,9.72717946 14.2515912,9.65771988 C13.6601416,9.58745263 13.0780061,9.60925971 12.5191561,9.70698772 C12.0689714,9.222386 11.6257723,8.76766806 11.2050824,8.35091058 C12.2164457,8.01895841 13.3085318,7.89538497 14.4277842,8.02784277 C15.5478127,8.1594929 16.5863423,8.5334439 17.4999069,9.09235121 Z M14.7048806,5.49095278 C12.7380391,5.26076697 10.8363967,5.62744893 9.16838461,6.45046418 C8.55287342,5.91094094 8.15314043,5.59029613 8.10501723,5.55072033 L7.82171132,5.3261882 C9.90109907,4.12518361 12.3445155,3.56223795 14.8818498,3.86188334 C17.4176317,4.16072107 19.6786457,5.27692036 21.4467851,6.93102755 L21.1231178,7.08529243 C21.0672328,7.11033019 20.6092862,7.3300163 19.8944239,7.71365932 C18.4445186,6.52234677 16.6693936,5.72275394 14.7048806,5.49095278 Z M19.4325965,22.9180382 C22.1717377,25.2812792 22.0584153,23.7830523 22.9750846,24.358113 C24.1944643,25.1213607 24.9031171,26.0727954 24.9031171,27 L0.5,27 C0.5,26.1656774 1.09144959,25.2812792 2.12066503,24.5616457 C2.73772859,24.1311578 4.01221708,24.822523 4.40651681,23.412332 C4.79926418,21.9989103 6.87011394,21.4795788 8.80513211,22.3591309 C9.56734143,22.7048134 10.1168773,22.7338895 10.5950045,22.6498919 C10.5740476,21.2808921 11.8268031,17.9331019 12.0449098,16.5511793 C12.0363718,16.5221032 12.0340433,16.4986808 12.0278338,16.4704124 C11.8128318,15.7338177 11.3253904,14.8243819 10.7510168,13.9755212 C10.2426185,13.1848127 9.68997796,12.4441798 9.25764538,11.8319663 C9.1287994,11.842466 8.98675836,11.8602347 8.83617933,11.8626577 C8.64911981,11.869119 8.44498432,11.8715421 8.24162501,11.8626577 C8.02739917,11.8578117 7.8186066,11.8376199 7.59972368,11.8109668 C7.3831693,11.7818907 7.16816728,11.7382766 6.9516129,11.6914318 C6.74049179,11.6340872 6.52781831,11.575935 6.3283399,11.4967834 C6.12420441,11.4160164 5.92317365,11.3465569 5.73378559,11.2391368 C5.35190475,11.0501421 5.00029495,10.823187 4.6828371,10.5598867 C4.5229439,10.4403517 4.37003633,10.2877021 4.22178584,10.1495906 C4.07664007,10.0163252 3.93459903,9.85640658 3.80109597,9.71506442 C3.66759291,9.57291458 3.53486603,9.43076474 3.40990096,9.28861491 C3.28493589,9.14242672 3.17316589,9.0156226 3.0808004,8.91062557 C2.97989692,8.81128221 2.89917414,8.69578547 2.84018442,8.63521026 C2.77886616,8.56009699 2.74937129,8.52213652 2.74937129,8.52213652 C2.74937129,8.52213652 2.77653761,8.4777147 2.83552734,8.41390881 C2.89063616,8.35333359 2.97756838,8.24025986 3.09477165,8.14737786 C3.21197491,8.04641917 3.36565867,7.90103866 3.53874693,7.80492598 C3.71649228,7.70315962 3.9237325,7.60058559 4.15425813,7.51093427 C4.38245521,7.42693664 4.62928064,7.3776688 4.89939147,7.33486232 C5.16794995,7.29124816 5.43573225,7.29932486 5.72059052,7.3114399 C6.00234407,7.33163164 6.27323108,7.38736083 6.55498463,7.46166643 C6.82820019,7.54404872 7.09287777,7.64743042 7.34901736,7.77181153 C7.5950666,7.90992302 7.84577292,8.04884218 8.06387966,8.22249113 C8.28353876,8.39129406 8.48767425,8.57382737 8.66852433,8.77655242 C9.03177683,9.17554117 9.30188767,9.62783611 9.48584247,10.0599393 C9.57820795,10.2780101 9.65039275,10.4871965 9.70162067,10.6850755 C9.75362476,10.8845699 9.77846254,11.0735646 9.8040765,11.2270218 C9.81882393,11.3005197 9.82348101,11.3724023 9.82969046,11.4362082 C9.76293893,11.3748253 9.69463504,11.3142501 9.61856934,11.2480212 C9.23746468,10.9201074 8.71043808,10.5017345 8.14925952,10.1447446 C7.86750598,9.96382663 7.5748859,9.80229273 7.2993418,9.66337357 C7.15730075,9.60199068 7.01758825,9.54303081 6.88641374,9.48568627 C6.7521345,9.43641843 6.62328852,9.39280427 6.50996616,9.34919012 C6.39198671,9.3233447 6.28021671,9.29426859 6.18319414,9.27084618 C6.08772393,9.24177007 5.99923934,9.23853939 5.92938309,9.22642435 C5.78811823,9.20704028 5.70661927,9.19815592 5.70661927,9.19815592 C5.70661927,9.19815592 5.78811823,9.21511698 5.92317365,9.24500075 C5.9930299,9.26196181 6.08306684,9.27326918 6.17465615,9.30880664 C6.26702164,9.34030576 6.3725822,9.37503554 6.48978546,9.41622669 C6.60077929,9.46549453 6.72263963,9.51799305 6.85303797,9.57614526 C6.97256978,9.64237416 7.1037443,9.71102607 7.23802353,9.78371633 C7.50037257,9.94121188 7.77281195,10.1237452 8.03516098,10.3208166 C8.20359216,10.449236 8.35727592,10.5825015 8.51251203,10.7165746 C8.45740321,10.6236926 8.41548946,10.5574637 8.41548946,10.5574637 C8.41548946,10.5574637 8.52337856,10.6786142 8.70267627,10.8724549 C8.95881586,11.09941 9.19477475,11.3207114 9.38338663,11.5153598 C9.4804092,11.6138955 9.56501288,11.7035468 9.63952622,11.7851214 C9.61158372,11.7875444 9.56734143,11.7931981 9.53086094,11.7996595 C10.0020025,12.3448364 10.5461051,13.0273172 11.0459654,13.7647194 C11.3215095,14.2121684 11.5923965,14.665271 11.7996367,15.1207966 C11.955649,15.437403 12.0495669,15.7564325 12.1287373,16.0576932 C12.1698749,15.8291227 12.2032506,15.5997446 12.2482691,15.3695588 C12.4407619,14.4350851 13.6927412,14.7710757 13.4699773,15.6683965 C13.2441088,16.5600637 13.0547207,17.4234624 12.9041417,18.2472853 C12.845152,18.6745425 12.7869384,19.086454 12.7450247,19.487058 C12.7558912,19.4232522 12.7667577,19.367523 12.7838337,19.274641 C12.8420473,18.9927643 12.8932752,18.5776222 13.0151355,18.0922128 C13.1851191,17.6261875 13.2720513,17.033358 13.5708808,16.4752584 C13.7168028,16.1998431 13.8192586,15.8864673 14.0086467,15.6142827 C14.1957062,15.3412904 14.3850942,15.0650674 14.5744823,14.7896521 C14.8127697,14.5546202 15.0495048,14.3179731 15.2808066,14.0894026 C15.5175417,13.8656781 15.7969667,13.7073749 16.0422397,13.5208032 C16.5343382,13.1403909 17.0862026,12.9610883 17.5068925,12.7195951 C17.7141327,12.6299437 17.908954,12.5604842 18.085147,12.4982936 C18.4026049,12.3246447 18.7433481,12.147765 19.1120339,11.9910771 C19.4100872,11.8650807 19.7174547,11.7584683 20.0100748,11.6680093 C20.1552206,11.6340872 20.2972616,11.5993574 20.4315409,11.5605893 C20.5704772,11.5412052 20.6993232,11.5177828 20.818855,11.4967834 C20.9414915,11.4895144 21.0532615,11.4798223 21.1510603,11.470938 C21.248859,11.4596306 21.3350151,11.4741687 21.407976,11.4741687 C21.5469124,11.4798223 21.6307399,11.483053 21.6307399,11.483053 C21.6307399,11.483053 21.5492409,11.470938 21.407976,11.4539769 C21.3373436,11.4475156 21.248859,11.4305545 21.1510603,11.4329775 C21.0501568,11.4305545 20.9360582,11.4305545 20.8157503,11.4305545 C20.6938899,11.4426695 20.5596107,11.4539769 20.4206743,11.466092 C20.2778571,11.4895144 20.1303828,11.5113214 19.9766991,11.5387822 C19.6747648,11.6050111 19.3565308,11.6865857 19.0406253,11.7907751 C18.4142476,11.9999615 17.8064982,12.2721461 17.3617467,12.4982936 C17.2701574,12.5451384 17.1886584,12.5855219 17.1141451,12.6267131 C17.1296687,12.5653302 17.1537303,12.4982936 17.1832252,12.4328724 C17.2422149,12.2907225 17.3128473,12.1098046 17.4090937,11.9305019 C17.5045639,11.7528146 17.6217672,11.5670506 17.7614797,11.378056 C18.0409047,11.004105 18.4049334,10.6285387 18.8520134,10.3353546 C19.0732249,10.1851281 19.3130647,10.0575163 19.5660995,9.94686557 C19.817582,9.83459951 20.0939023,9.7578709 20.3640132,9.68841132 C20.6395573,9.63025912 20.9213108,9.59552933 21.2061691,9.58422195 C21.4972368,9.58099127 21.7727809,9.59552933 22.0491012,9.64802785 C22.3285262,9.70618005 22.590099,9.76433226 22.8415815,9.87175231 C23.0953926,9.98240303 23.3212611,10.0922461 23.5246204,10.2287422 C23.7279798,10.3773534 23.9072775,10.525157 24.055528,10.6673068 C24.2030023,10.8062259 24.3171008,10.9863363 24.4063616,11.111525 C24.4987271,11.2334831 24.5577168,11.3602872 24.5988544,11.4362082 C24.6392157,11.5113214 24.6578441,11.5605893 24.6578441,11.5605893 C24.6578441,11.5605893 24.6190351,11.5904731 24.5437455,11.6486253 C24.4707846,11.6938548 24.3636716,11.7851214 24.2472446,11.8578117 C24.133146,11.9361556 23.9934335,12.0314606 23.8381974,12.142919 C23.6845136,12.2495314 23.5246204,12.3537208 23.3631749,12.4587178 C23.1986246,12.5629072 23.0263125,12.6824423 22.8532243,12.7777473 C22.6793598,12.8706293 22.4923003,12.9845107 22.3114502,13.0596239 C21.9404359,13.2365036 21.5469124,13.369769 21.1339843,13.4569973 C20.9244155,13.5119189 20.7132944,13.5296876 20.4975162,13.5611867 C20.2863951,13.5878398 20.0651836,13.5878398 19.8478531,13.5926858 C19.6274178,13.5854168 19.4100872,13.5741094 19.1919805,13.5474563 C18.9723214,13.5175726 18.7650812,13.4860734 18.5562886,13.4359979 C18.356034,13.3956145 18.1573318,13.3439236 17.9780341,13.2881944 C17.7995126,13.2429649 17.6303052,13.169467 17.4936974,13.1234298 C17.4323791,13.1048534 17.3865845,13.0822387 17.3345804,13.0628546 C16.9829706,13.2712334 16.5886709,13.4796121 16.2145518,13.7881418 C15.9840262,13.9730982 15.7193486,14.1330167 15.4989133,14.3510875 L14.8422646,15.0303376 C14.6598622,15.2887918 14.4720265,15.5472461 14.2904002,15.8024697 C14.1033407,16.0552702 13.9946754,16.3541079 13.8503058,16.6182159 C13.5507001,17.1440087 13.4032258,17.7069544 13.2084045,18.1560187 C12.9794312,18.8627295 12.8086715,19.3933684 12.7364867,19.6114392 C12.7062157,19.939353 12.6767208,20.2640361 12.6837064,20.5693352 L19.4325965,22.9180382 Z" id="Fill-1"></path>
            </g>
        </g>
    </g>
</svg>