<?xml version="1.0" encoding="UTF-8"?>
<svg width="25px" height="25px" viewBox="0 0 25 25" version="1.1" xmlns="http://www.w3.org/2000/svg" xmlns:xlink="http://www.w3.org/1999/xlink">
    <!-- Generator: Sketch 52.6 (67491) - http://www.bohemiancoding.com/sketch -->
    <title>icono / soil_circle</title>
    <desc>Created with Sketch.</desc>
    <defs>
        <polygon id="path-1" points="0 9.80392157e-05 24.822402 9.80392157e-05 24.822402 24.822451 0 24.822451"></polygon>
    </defs>
    <g id="icono-/-soil_circle" stroke="none" stroke-width="1" fill="none" fill-rule="evenodd">
        <mask id="mask-2" fill="white">
            <use xlink:href="#path-1"></use>
        </mask>
        <g id="Clip-2"></g>
        <path d="M19.5552451,8.44107843 C18.1557353,6.72588235 16.1130882,5.53421569 13.7454412,5.26607843 C11.4072059,5.00186275 9.17632353,5.68715686 7.43808824,7.01264706 L6.86063725,6.20186275 C8.79151961,4.73764706 11.265049,3.98372549 13.8576961,4.27686275 C16.4822059,4.57392157 18.7483824,5.89107843 20.3057353,7.78666667 L19.5552451,8.44107843 Z M15.2532843,9.7327451 C14.9380882,9.92 14.6037745,10.1263725 14.2611275,10.3494118 C13.9302451,10.2126471 13.5753431,10.1180392 13.2018137,10.0758824 C12.8282843,10.0332353 12.4606373,10.0464706 12.1076961,10.1057843 C11.8233824,9.81166667 11.5434804,9.53568627 11.2777941,9.2827451 C11.9165196,9.08127451 12.6062255,9.00627451 13.3130882,9.08666667 C14.0204412,9.16656863 14.6763235,9.39352941 15.2532843,9.7327451 Z M13.4880882,7.54696078 C12.2459314,7.4072549 11.044951,7.62980392 9.99151961,8.12931373 C9.60279412,7.80186275 9.35034314,7.6072549 9.31995098,7.58323529 L9.14102941,7.44696078 C10.4542647,6.71803922 11.997402,6.37637255 13.5998529,6.55823529 C15.2013235,6.73960784 16.6292647,7.41705882 17.7459314,8.42098039 L17.5415196,8.51460784 C17.5062255,8.52980392 17.2170098,8.66313725 16.7655392,8.89598039 C15.8498529,8.17294118 14.7287745,7.68764706 13.4880882,7.54696078 Z M16.4738725,18.1239216 C18.2037745,19.5582353 18.1322059,18.6489216 18.7111275,18.9979412 C19.4812255,19.4611765 19.9287745,20.0386275 19.9287745,20.6013725 L4.5170098,20.6013725 C4.5170098,20.095 4.89053922,19.5582353 5.54053922,19.1214706 C5.9302451,18.8601961 6.73514706,19.2798039 6.98416667,18.4239216 C7.23220588,17.5660784 8.54004902,17.2508824 9.76210784,17.7847059 C10.2434804,17.9945098 10.5905392,18.0121569 10.8925,17.9611765 C10.8792647,17.1302941 11.6704412,15.0984314 11.8081863,14.2597059 C11.8027941,14.2420588 11.8013235,14.2278431 11.797402,14.2106863 C11.6616176,13.7636275 11.3537745,13.2116667 10.9910294,12.6964706 C10.669951,12.2165686 10.3209314,11.7670588 10.0478922,11.3954902 C9.96651961,11.4018627 9.87681373,11.4126471 9.78171569,11.4141176 C9.66357843,11.4180392 9.53465686,11.4195098 9.40622549,11.4141176 C9.27093137,11.4111765 9.13906863,11.3989216 9.00083333,11.3827451 C8.86406863,11.365098 8.72828431,11.3386275 8.59151961,11.3101961 C8.45818627,11.2753922 8.32387255,11.240098 8.19789216,11.1920588 C8.06897059,11.1430392 7.9420098,11.1008824 7.82240196,11.0356863 C7.58122549,10.9209804 7.35916667,10.7832353 7.15867647,10.6234314 C7.05769608,10.5508824 6.96112745,10.4582353 6.8675,10.3744118 C6.77583333,10.2935294 6.68612745,10.1964706 6.60181373,10.1106863 C6.5175,10.0244118 6.43367647,9.93813725 6.3547549,9.85186275 C6.27583333,9.76313725 6.2052451,9.68617647 6.14691176,9.62245098 C6.08318627,9.56215686 6.03220588,9.49205882 5.99495098,9.45529412 C5.95622549,9.40970588 5.93759804,9.38666667 5.93759804,9.38666667 C5.93759804,9.38666667 5.9547549,9.35970588 5.9920098,9.32098039 C6.02681373,9.28421569 6.08171569,9.21558824 6.15573529,9.15921569 C6.2297549,9.09794118 6.32681373,9.00970588 6.43612745,8.95137255 C6.54838235,8.88960784 6.67926471,8.82735294 6.82485294,8.77294118 C6.96897059,8.72196078 7.12485294,8.69205882 7.29544118,8.66607843 C7.46504902,8.63960784 7.63416667,8.6445098 7.81406863,8.65186275 C7.9920098,8.66411765 8.16308824,8.69794118 8.34102941,8.74303922 C8.51357843,8.79303922 8.68073529,8.85578431 8.8425,8.93127451 C8.99789216,9.01509804 9.15622549,9.09941176 9.29397059,9.20480392 C9.43269608,9.3072549 9.56161765,9.41803922 9.67583333,9.54107843 C9.9052451,9.78323529 10.0758333,10.0577451 10.1920098,10.32 C10.2503431,10.4523529 10.2959314,10.5793137 10.3282843,10.6994118 C10.3611275,10.8204902 10.3768137,10.9351961 10.3929902,11.0283333 C10.4023039,11.0729412 10.4052451,11.1165686 10.4091667,11.1552941 C10.3670098,11.1180392 10.3238725,11.0812745 10.2758333,11.0410784 C10.0351471,10.8420588 9.70230392,10.5881373 9.34789216,10.3714706 C9.16995098,10.2616667 8.98514706,10.1636275 8.81112745,10.0793137 C8.72142157,10.0420588 8.63318627,10.0062745 8.55034314,9.97147059 C8.46553922,9.94156863 8.38416667,9.91509804 8.31259804,9.88862745 C8.23808824,9.87294118 8.1675,9.85529412 8.10622549,9.84107843 C8.04593137,9.82343137 7.99004902,9.82147059 7.94593137,9.81411765 C7.85671569,9.80235294 7.8052451,9.79696078 7.8052451,9.79696078 C7.8052451,9.79696078 7.85671569,9.8072549 7.9420098,9.82539216 C7.98612745,9.83568627 8.0429902,9.84254902 8.10083333,9.86411765 C8.15916667,9.88323529 8.22583333,9.90431373 8.29985294,9.92931373 C8.36995098,9.95921569 8.44691176,9.99107843 8.52926471,10.0263725 C8.6047549,10.0665686 8.68759804,10.1082353 8.77240196,10.1523529 C8.93808824,10.2479412 9.11014706,10.3587255 9.27583333,10.4783333 C9.38220588,10.5562745 9.47926471,10.6371569 9.57730392,10.7185294 C9.5425,10.6621569 9.51602941,10.6219608 9.51602941,10.6219608 C9.51602941,10.6219608 9.58416667,10.6954902 9.69740196,10.8131373 C9.85916667,10.9508824 10.0081863,11.0851961 10.1273039,11.2033333 C10.1885784,11.2631373 10.2420098,11.317549 10.2890686,11.3670588 C10.2714216,11.3685294 10.2434804,11.3719608 10.2204412,11.3758824 C10.5179902,11.7067647 10.8616176,12.1209804 11.1773039,12.5685294 C11.3513235,12.840098 11.522402,13.115098 11.6532843,13.3915686 C11.7518137,13.5837255 11.8111275,13.7773529 11.8611275,13.9601961 C11.8871078,13.8214706 11.9081863,13.6822549 11.9366176,13.542549 C12.0581863,12.9753922 12.8488725,13.1793137 12.7081863,13.7239216 C12.5655392,14.265098 12.4459314,14.7891176 12.3508333,15.2891176 C12.3135784,15.5484314 12.2768137,15.7984314 12.2503431,16.0415686 C12.2572059,16.0028431 12.2640686,15.9690196 12.2748529,15.9126471 C12.3116176,15.7415686 12.3439706,15.4896078 12.4209314,15.195 C12.5282843,14.9121569 12.5831863,14.5523529 12.7719118,14.2136275 C12.8640686,14.0464706 12.9287745,13.8562745 13.0483824,13.6910784 C13.1665196,13.5253922 13.2861275,13.3577451 13.4057353,13.1905882 C13.5562255,13.0479412 13.7057353,12.9043137 13.8518137,12.7655882 C14.0013235,12.6298039 14.1777941,12.5337255 14.3326961,12.4204902 C14.6434804,12.1896078 14.9920098,12.0807843 15.2576961,11.9342157 C15.3885784,11.8798039 15.5116176,11.8376471 15.6228922,11.799902 C15.8233824,11.6945098 16.0385784,11.5871569 16.2714216,11.4920588 C16.4596569,11.4155882 16.6537745,11.3508824 16.8385784,11.2959804 C16.9302451,11.2753922 17.019951,11.2543137 17.1047549,11.2307843 C17.1925,11.2190196 17.2738725,11.2048039 17.3493627,11.1920588 C17.4268137,11.1876471 17.497402,11.1817647 17.5591667,11.1763725 C17.6209314,11.1695098 17.6753431,11.1783333 17.7214216,11.1783333 C17.8091667,11.1817647 17.8621078,11.1837255 17.8621078,11.1837255 C17.8621078,11.1837255 17.8106373,11.1763725 17.7214216,11.1660784 C17.6768137,11.1621569 17.6209314,11.1518627 17.5591667,11.1533333 C17.4954412,11.1518627 17.4233824,11.1518627 17.347402,11.1518627 C17.2704412,11.1592157 17.1856373,11.1660784 17.0978922,11.1734314 C17.0076961,11.1876471 16.9145588,11.2008824 16.8175,11.217549 C16.6268137,11.2577451 16.4258333,11.3072549 16.2263235,11.3704902 C15.8307353,11.497451 15.4469118,11.6626471 15.1660294,11.799902 C15.1081863,11.8283333 15.0567157,11.8528431 15.0096569,11.8778431 C15.0194608,11.8405882 15.0346569,11.799902 15.0532843,11.7601961 C15.0905392,11.6739216 15.1351471,11.5641176 15.1959314,11.4552941 C15.2562255,11.347451 15.3302451,11.2347059 15.4184804,11.12 C15.594951,10.8930392 15.8248529,10.665098 16.1072059,10.4871569 C16.2469118,10.3959804 16.3983824,10.3185294 16.5581863,10.2513725 C16.7170098,10.1832353 16.8915196,10.1366667 17.0621078,10.0945098 C17.2361275,10.0592157 17.4140686,10.0381373 17.5939706,10.0312745 C17.7777941,10.0293137 17.9518137,10.0381373 18.1263235,10.07 C18.3027941,10.1052941 18.4679902,10.1405882 18.6268137,10.2057843 C18.7871078,10.2729412 18.9297549,10.3396078 19.0581863,10.422451 C19.1866176,10.5126471 19.2998529,10.6023529 19.3934804,10.6886275 C19.4866176,10.7729412 19.5586765,10.8822549 19.615049,10.9582353 C19.6733824,11.0322549 19.7106373,11.1092157 19.7366176,11.1552941 C19.7621078,11.2008824 19.7738725,11.2307843 19.7738725,11.2307843 C19.7738725,11.2307843 19.7493627,11.2489216 19.7018137,11.2842157 C19.6557353,11.3116667 19.5880882,11.3670588 19.5145588,11.4111765 C19.4425,11.4587255 19.3542647,11.5165686 19.2562255,11.5842157 C19.1591667,11.6489216 19.0581863,11.7121569 18.9562255,11.7758824 C18.8523039,11.8391176 18.7434804,11.9116667 18.6341667,11.9695098 C18.5243627,12.0258824 18.4062255,12.095 18.2920098,12.1405882 C18.0576961,12.2479412 17.8091667,12.3288235 17.5483824,12.3817647 C17.4160294,12.415098 17.2826961,12.4258824 17.1464216,12.445 C17.0130882,12.4611765 16.8733824,12.4611765 16.7361275,12.4641176 C16.5969118,12.4597059 16.4596569,12.4528431 16.3219118,12.4366667 C16.1831863,12.4185294 16.0523039,12.3994118 15.9204412,12.3690196 C15.7939706,12.3445098 15.6684804,12.3131373 15.5552451,12.2793137 C15.4425,12.2518627 15.3356373,12.2072549 15.2493627,12.1793137 C15.2106373,12.1680392 15.1817157,12.1543137 15.1488725,12.142549 C14.9268137,12.2690196 14.6777941,12.3954902 14.4415196,12.5827451 C14.2959314,12.695 14.1287745,12.7920588 13.9895588,12.9244118 L13.5748529,13.3366667 C13.4596569,13.4935294 13.3410294,13.6503922 13.2263235,13.8052941 C13.1081863,13.9587255 13.0395588,14.140098 12.9483824,14.3003922 C12.7591667,14.6195098 12.6660294,14.9611765 12.5429902,15.2337255 C12.3983824,15.6626471 12.2905392,15.9847059 12.244951,16.1170588 C12.2258333,16.3160784 12.2072059,16.5131373 12.2116176,16.6984314 L16.4738725,18.1239216 Z M12.4111275,-9.80392157e-05 C5.55671569,-9.80392157e-05 -0.000147058824,5.55676471 -0.000147058824,12.4111765 C-0.000147058824,19.2660784 5.55671569,24.822451 12.4111275,24.822451 C19.2660294,24.822451 24.822402,19.2660784 24.822402,12.4111765 C24.822402,5.55676471 19.2660294,-9.80392157e-05 12.4111275,-9.80392157e-05 Z" id="Fill-1" fill="#FFB439" mask="url(#mask-2)"></path>
    </g>
</svg>