<?xml version="1.0" encoding="UTF-8"?>
<svg width="50px" height="50px" viewBox="0 0 50 50" version="1.1" xmlns="http://www.w3.org/2000/svg" xmlns:xlink="http://www.w3.org/1999/xlink">
    <!-- Generator: sketchtool 52.6 (67491) - http://www.bohemiancoding.com/sketch -->
    <title>9882B6F2-68C8-4561-B309-B0A5FBB2E02C</title>
    <desc>Created with sketchtool.</desc>
    <defs>
        <polygon id="path-1" points="0 0.000196078431 49.6448039 0.000196078431 49.6448039 49.644902 0 49.644902"></polygon>
    </defs>
    <g id="Page-1" stroke="none" stroke-width="1" fill="none" fill-rule="evenodd">
        <g id="Perfil-" transform="translate(-123.000000, -315.000000)">
            <g id="Group-2" transform="translate(48.000000, 315.000000)">
                <g id="icono-/-soil_circle" transform="translate(75.000000, 0.000000)">
                    <g id="ic_soil">
                        <mask id="mask-2" fill="white">
                            <use xlink:href="#path-1"></use>
                        </mask>
                        <g id="Clip-2"></g>
                        <path d="M39.1104902,16.8821569 C36.3114706,13.4517647 32.2261765,11.0684314 27.4908824,10.5321569 C22.8144118,10.0037255 18.3526471,11.3743137 14.8761765,14.0252941 L13.7212745,12.4037255 C17.5830392,9.47529412 22.530098,7.96745098 27.7153922,8.55372549 C32.9644118,9.14784314 37.4967647,11.7821569 40.6114706,15.5733333 L39.1104902,16.8821569 Z M30.5065686,19.4654902 C29.8761765,19.84 29.207549,20.2527451 28.5222549,20.6988235 C27.8604902,20.4252941 27.1506863,20.2360784 26.4036275,20.1517647 C25.6565686,20.0664706 24.9212745,20.0929412 24.2153922,20.2115686 C23.6467647,19.6233333 23.0869608,19.0713725 22.5555882,18.5654902 C23.8330392,18.162549 25.212451,18.012549 26.6261765,18.1733333 C28.0408824,18.3331373 29.3526471,18.7870588 30.5065686,19.4654902 Z M26.9761765,15.0939216 C24.4918627,14.8145098 22.089902,15.2596078 19.9830392,16.2586275 C19.2055882,15.6037255 18.7006863,15.2145098 18.639902,15.1664706 L18.2820588,14.8939216 C20.9085294,13.4360784 23.9948039,12.7527451 27.1997059,13.1164706 C30.4026471,13.4792157 33.2585294,14.8341176 35.4918627,16.8419608 L35.0830392,17.0292157 C35.012451,17.0596078 34.4340196,17.3262745 33.5310784,17.7919608 C31.6997059,16.3458824 29.457549,15.3752941 26.9761765,15.0939216 Z M32.9477451,36.2478431 C36.407549,39.1164706 36.2644118,37.2978431 37.4222549,37.9958824 C38.962451,38.9223529 39.857549,40.0772549 39.857549,41.2027451 L9.03401961,41.2027451 C9.03401961,40.19 9.78107843,39.1164706 11.0810784,38.2429412 C11.8604902,37.7203922 13.4702941,38.5596078 13.9683333,36.8478431 C14.4644118,35.1321569 17.080098,34.5017647 19.5242157,35.5694118 C20.4869608,35.9890196 21.1810784,36.0243137 21.785,35.9223529 C21.7585294,34.2605882 23.3408824,30.1968627 23.6163725,28.5194118 C23.6055882,28.4841176 23.6026471,28.4556863 23.5948039,28.4213725 C23.3232353,27.5272549 22.707549,26.4233333 21.9820588,25.3929412 C21.339902,24.4331373 20.6418627,23.5341176 20.0957843,22.7909804 C19.9330392,22.8037255 19.7536275,22.8252941 19.5634314,22.8282353 C19.3271569,22.8360784 19.0693137,22.8390196 18.812451,22.8282353 C18.5418627,22.8223529 18.2781373,22.7978431 18.0016667,22.7654902 C17.7281373,22.7301961 17.4565686,22.6772549 17.1830392,22.6203922 C16.9163725,22.5507843 16.6477451,22.4801961 16.3957843,22.3841176 C16.1379412,22.2860784 15.8840196,22.2017647 15.6448039,22.0713725 C15.162451,21.8419608 14.7183333,21.5664706 14.3173529,21.2468627 C14.1153922,21.1017647 13.9222549,20.9164706 13.735,20.7488235 C13.5516667,20.5870588 13.3722549,20.3929412 13.2036275,20.2213725 C13.035,20.0488235 12.8673529,19.8762745 12.7095098,19.7037255 C12.5516667,19.5262745 12.4104902,19.3723529 12.2938235,19.244902 C12.1663725,19.1243137 12.0644118,18.9841176 11.989902,18.9105882 C11.912451,18.8194118 11.8751961,18.7733333 11.8751961,18.7733333 C11.8751961,18.7733333 11.9095098,18.7194118 11.9840196,18.6419608 C12.0536275,18.5684314 12.1634314,18.4311765 12.3114706,18.3184314 C12.4595098,18.1958824 12.6536275,18.0194118 12.8722549,17.9027451 C13.0967647,17.7792157 13.3585294,17.6547059 13.6497059,17.5458824 C13.9379412,17.4439216 14.2497059,17.3841176 14.5908824,17.3321569 C14.930098,17.2792157 15.2683333,17.2890196 15.6281373,17.3037255 C15.9840196,17.3282353 16.3261765,17.3958824 16.6820588,17.4860784 C17.0271569,17.5860784 17.3614706,17.7115686 17.685,17.862549 C17.9957843,18.0301961 18.312451,18.1988235 18.5879412,18.4096078 C18.8653922,18.6145098 19.1232353,18.8360784 19.3516667,19.0821569 C19.8104902,19.5664706 20.1516667,20.1154902 20.3840196,20.64 C20.5006863,20.9047059 20.5918627,21.1586275 20.6565686,21.3988235 C20.7222549,21.6409804 20.7536275,21.8703922 20.7859804,22.0566667 C20.8046078,22.1458824 20.8104902,22.2331373 20.8183333,22.3105882 C20.7340196,22.2360784 20.6477451,22.162549 20.5516667,22.0821569 C20.0702941,21.6841176 19.4046078,21.1762745 18.6957843,20.7429412 C18.339902,20.5233333 17.9702941,20.3272549 17.6222549,20.1586275 C17.4428431,20.0841176 17.2663725,20.012549 17.1006863,19.9429412 C16.9310784,19.8831373 16.7683333,19.8301961 16.6251961,19.7772549 C16.4761765,19.7458824 16.335,19.7105882 16.212451,19.6821569 C16.0918627,19.6468627 15.980098,19.6429412 15.8918627,19.6282353 C15.7134314,19.6047059 15.6104902,19.5939216 15.6104902,19.5939216 C15.6104902,19.5939216 15.7134314,19.6145098 15.8840196,19.6507843 C15.9722549,19.6713725 16.0859804,19.685098 16.2016667,19.7282353 C16.3183333,19.7664706 16.4516667,19.8086275 16.5997059,19.8586275 C16.739902,19.9184314 16.8938235,19.9821569 17.0585294,20.0527451 C17.2095098,20.1331373 17.3751961,20.2164706 17.5448039,20.3047059 C17.8761765,20.4958824 18.2202941,20.717451 18.5516667,20.9566667 C18.7644118,21.112549 18.9585294,21.2743137 19.1546078,21.4370588 C19.085,21.3243137 19.0320588,21.2439216 19.0320588,21.2439216 C19.0320588,21.2439216 19.1683333,21.3909804 19.3948039,21.6262745 C19.7183333,21.9017647 20.0163725,22.1703922 20.2546078,22.4066667 C20.3771569,22.5262745 20.4840196,22.635098 20.5781373,22.7341176 C20.5428431,22.7370588 20.4869608,22.7439216 20.4408824,22.7517647 C21.0359804,23.4135294 21.7232353,24.2419608 22.3546078,25.1370588 C22.7026471,25.6801961 23.0448039,26.2301961 23.3065686,26.7831373 C23.5036275,27.167451 23.6222549,27.5547059 23.7222549,27.9203922 C23.7742157,27.6429412 23.8163725,27.3645098 23.8732353,27.085098 C24.1163725,25.9507843 25.6977451,26.3586275 25.4163725,27.4478431 C25.1310784,28.5301961 24.8918627,29.5782353 24.7016667,30.5782353 C24.6271569,31.0968627 24.5536275,31.5968627 24.5006863,32.0831373 C24.5144118,32.0056863 24.5281373,31.9380392 24.5497059,31.8252941 C24.6232353,31.4831373 24.6879412,30.9792157 24.8418627,30.39 C25.0565686,29.8243137 25.1663725,29.1047059 25.5438235,28.4272549 C25.7281373,28.0929412 25.857549,27.712549 26.0967647,27.3821569 C26.3330392,27.0507843 26.5722549,26.7154902 26.8114706,26.3811765 C27.112451,26.0958824 27.4114706,25.8086275 27.7036275,25.5311765 C28.0026471,25.2596078 28.3555882,25.067451 28.6653922,24.8409804 C29.2869608,24.3792157 29.9840196,24.1615686 30.5153922,23.8684314 C30.7771569,23.7596078 31.0232353,23.6752941 31.2457843,23.5998039 C31.6467647,23.3890196 32.0771569,23.1743137 32.5428431,22.9841176 C32.9193137,22.8311765 33.307549,22.7017647 33.6771569,22.5919608 C33.8604902,22.5507843 34.039902,22.5086275 34.2095098,22.4615686 C34.385,22.4380392 34.5477451,22.4096078 34.6987255,22.3841176 C34.8536275,22.3752941 34.9948039,22.3635294 35.1183333,22.3527451 C35.2418627,22.3390196 35.3506863,22.3566667 35.4428431,22.3566667 C35.6183333,22.3635294 35.7242157,22.367451 35.7242157,22.367451 C35.7242157,22.367451 35.6212745,22.3527451 35.4428431,22.3321569 C35.3536275,22.3243137 35.2418627,22.3037255 35.1183333,22.3066667 C34.9908824,22.3037255 34.8467647,22.3037255 34.6948039,22.3037255 C34.5408824,22.3184314 34.3712745,22.3321569 34.1957843,22.3468627 C34.0153922,22.3752941 33.8291176,22.4017647 33.635,22.435098 C33.2536275,22.5154902 32.8516667,22.6145098 32.4526471,22.7409804 C31.6614706,22.994902 30.8938235,23.3252941 30.3320588,23.5998039 C30.2163725,23.6566667 30.1134314,23.7056863 30.0193137,23.7556863 C30.0389216,23.6811765 30.0693137,23.5998039 30.1065686,23.5203922 C30.1810784,23.3478431 30.2702941,23.1282353 30.3918627,22.9105882 C30.512451,22.694902 30.6604902,22.4694118 30.8369608,22.24 C31.189902,21.7860784 31.6497059,21.3301961 32.2144118,20.9743137 C32.4938235,20.7919608 32.7967647,20.6370588 33.1163725,20.5027451 C33.4340196,20.3664706 33.7830392,20.2733333 34.1242157,20.1890196 C34.4722549,20.1184314 34.8281373,20.0762745 35.1879412,20.062549 C35.5555882,20.0586275 35.9036275,20.0762745 36.2526471,20.14 C36.6055882,20.2105882 36.9359804,20.2811765 37.2536275,20.4115686 C37.5742157,20.5458824 37.8595098,20.6792157 38.1163725,20.844902 C38.3732353,21.0252941 38.5997059,21.2047059 38.7869608,21.3772549 C38.9732353,21.5458824 39.1173529,21.7645098 39.230098,21.9164706 C39.3467647,22.0645098 39.4212745,22.2184314 39.4732353,22.3105882 C39.5242157,22.4017647 39.5477451,22.4615686 39.5477451,22.4615686 C39.5477451,22.4615686 39.4987255,22.4978431 39.4036275,22.5684314 C39.3114706,22.6233333 39.1761765,22.7341176 39.0291176,22.8223529 C38.885,22.917451 38.7085294,23.0331373 38.512451,23.1684314 C38.3183333,23.2978431 38.1163725,23.4243137 37.912451,23.5517647 C37.7046078,23.6782353 37.4869608,23.8233333 37.2683333,23.9390196 C37.0487255,24.0517647 36.812451,24.19 36.5840196,24.2811765 C36.1153922,24.4958824 35.6183333,24.6576471 35.0967647,24.7635294 C34.8320588,24.8301961 34.5653922,24.8517647 34.2928431,24.89 C34.0261765,24.9223529 33.7467647,24.9223529 33.4722549,24.9282353 C33.1938235,24.9194118 32.9193137,24.9056863 32.6438235,24.8733333 C32.3663725,24.8370588 32.1046078,24.7988235 31.8408824,24.7380392 C31.5879412,24.6890196 31.3369608,24.6262745 31.1104902,24.5586275 C30.885,24.5037255 30.6712745,24.4145098 30.4987255,24.3586275 C30.4212745,24.3360784 30.3634314,24.3086275 30.2977451,24.285098 C29.8536275,24.5380392 29.3555882,24.7909804 28.8830392,25.1654902 C28.5918627,25.39 28.257549,25.5841176 27.9791176,25.8488235 L27.1497059,26.6733333 C26.9193137,26.9870588 26.6820588,27.3007843 26.4526471,27.6105882 C26.2163725,27.917451 26.0791176,28.2801961 25.8967647,28.6007843 C25.5183333,29.2390196 25.3320588,29.9223529 25.0859804,30.467451 C24.7967647,31.3252941 24.5810784,31.9694118 24.489902,32.2341176 C24.4516667,32.6321569 24.4144118,33.0262745 24.4232353,33.3968627 L32.9477451,36.2478431 Z M24.8222549,-0.000196078431 C11.1134314,-0.000196078431 -0.000294117647,11.1135294 -0.000294117647,24.8223529 C-0.000294117647,38.5321569 11.1134314,49.644902 24.8222549,49.644902 C38.5320588,49.644902 49.6448039,38.5321569 49.6448039,24.8223529 C49.6448039,11.1135294 38.5320588,-0.000196078431 24.8222549,-0.000196078431 Z" id="Fill-1" fill="#6DAC3A" mask="url(#mask-2)"></path>
                    </g>
                </g>
            </g>
        </g>
    </g>
</svg>