<?xml version="1.0" encoding="UTF-8"?>
<svg width="20px" height="20px" viewBox="0 0 20 20" version="1.1" xmlns="http://www.w3.org/2000/svg" xmlns:xlink="http://www.w3.org/1999/xlink">
    <!-- Generator: Sketch 52.6 (67491) - http://www.bohemiancoding.com/sketch -->
    <title>icon / user</title>
    <desc>Created with Sketch.</desc>
    <g id="Page-1" stroke="none" stroke-width="1" fill="none" fill-rule="evenodd">
        <g id="login-1" transform="translate(-292.000000, -417.000000)" stroke="#FFFFFF">
            <g id="Group" transform="translate(33.000000, 382.000000)">
                <g id="Stacked-Group" transform="translate(20.666667, 30.000000)">
                    <g id="Group-5">
                        <g id="icono-/-user" transform="translate(238.000000, 6.000000)">
                            <path d="M18.6615723,15.5535524 C18.1171076,12.1769426 15.6429139,12.9376375 12.0909541,10.8555524 L12.0909541,9.88192263 C13.1057997,9.32868998 13.1819132,8.36600546 13.4645477,7.39187818 C13.5995221,7.39187818 13.7867612,7.18192837 13.7867612,6.97197857 C13.7867612,6.90531205 13.9374658,6.39237782 13.9491365,6.35158188 C13.9491365,6.35108437 14.3687752,5.23417132 14.0196683,5.1018333 C13.952181,4.96899776 13.7431228,5.16849982 13.7431228,5.16849982 C13.7431228,5.16849982 14.1754471,3.08790723 13.814162,2.25805825 C13.1824206,-0.032981652 7.8001866,-0.65238332 7.8001866,0.730698316 C5.46401188,1.42820927 5.88212829,3.57497087 6.24341335,5.16849982 C6.24341335,5.16849982 6.02928092,4.96899776 5.81514848,5.16849982 C5.60050862,5.44461864 5.88263572,6.07546307 5.95063038,6.35158188 C5.9623011,6.39287533 6.23326489,6.90531205 6.23326489,6.97197857 C6.23326489,7.18192837 6.24696531,7.39187818 6.38193978,7.39187818 C6.66406688,8.36600546 6.50930292,9.32868998 7.52414858,9.88192263 L7.52414858,10.8555524 C3.46476592,12.9376375 1.64920703,12.1744551 1.10423491,15.5500698 C1.0951013,15.6077811 0.996153846,17.8217067 0.996153846,17.8217067 L18.9208654,17.8217067 C18.9208654,17.8217067 18.6712134,15.6112637 18.6615723,15.5535524 Z" id="Stroke-1"></path>
                        </g>
                    </g>
                </g>
            </g>
        </g>
    </g>
</svg>