<?xml version="1.0" encoding="UTF-8"?>
<svg width="27px" height="27px" viewBox="0 0 27 27" version="1.1" xmlns="http://www.w3.org/2000/svg" xmlns:xlink="http://www.w3.org/1999/xlink">
    <!-- Generator: sketchtool 52.6 (67491) - http://www.bohemiancoding.com/sketch -->
    <title>D96B3AA0-E0D1-4199-86D7-24D8512B7904</title>
    <desc>Created with sketchtool.</desc>
    <g id="Symbols" stroke="none" stroke-width="1" fill="none" fill-rule="evenodd">
        <g id="icono-/-weather" fill="#8E8E93">
            <g id="Icono-/-weather" transform="translate(1.000000, 0.000000)">
                <path d="M5.49769286,27.9999995 C2.4653249,27.9993385 -0.00197687274,25.5246425 1.18854355e-06,22.4848116 C1.18854355e-06,20.6598554 0.907271965,18.9598239 2.39609276,17.9386152 L2.39873017,8.11319954 C2.39938953,6.39532162 3.80051627,4.99933926 5.51483605,5.00000023 C7.22783713,5.00066121 8.62896387,6.39796553 8.62896387,8.1145215 L8.62896387,9.88990437 L7.4592703,9.88990437 L7.4678419,10.3314367 L8.62896387,10.3248269 L8.62896387,12.0909561 L7.49355669,12.0909561 L7.49355669,12.5661982 L8.62632646,12.5424031 L8.60852391,13.9879587 L7.49355669,13.9879587 L7.49355669,14.485013 L8.62896387,14.485674 L8.62896387,16.2789032 L7.49355669,16.2782422 L7.49355669,16.7204355 L8.60852391,16.7204355 L8.60786455,17.9372932 C10.0953666,18.9598239 11,20.6624994 11,22.4867945 C10.9986813,25.5266254 8.53072016,28.0013214 5.49769286,27.9999995 Z M5.49874782,25.2761814 C3.97168451,25.2761814 2.73539621,24.0348676 2.73539621,22.504707 C2.73605556,21.1464003 3.71189913,20.0200963 4.99697961,19.7828057 L4.99961702,10.0928903 C4.99961702,9.81461915 5.22643472,9.58856519 5.50402265,9.58856519 C5.78161059,9.58856519 6.00710957,9.81461915 6.00710957,10.0928903 L6.0038128,19.7834667 C7.28889329,20.0214182 8.26341815,21.1490442 8.26275879,22.5066899 C8.26209944,24.0361895 7.02515178,25.2768424 5.49874782,25.2761814 Z M7.35878478,19.1409976 C7.09372457,18.9922778 6.9321829,18.7113628 6.9321829,18.4066527 L6.93482032,8.1145876 C6.93547967,7.32472068 6.2919504,6.68159055 5.50534136,6.68092957 C4.71741361,6.68092957 4.07520305,7.32339873 4.07520305,8.11326564 L4.07124693,18.4059917 C4.07124693,18.7100409 3.90706784,18.9916169 3.64200763,19.1396756 C2.43077477,19.8165155 1.67779277,21.0988099 1.67779277,22.4855386 C1.67581471,24.5993415 3.39079385,26.3178804 5.49808847,26.3185414 C7.60538309,26.3198633 9.32036223,24.6006634 9.32168093,22.4875216 C9.32168093,21.1007929 8.57001765,19.8184985 7.35878478,19.1409976 Z" id="Combined-Shape"></path>
                <path d="M22.8554951,7.20613622 L21.7786635,7.20221948 C21.9525982,6.81642127 22.0503143,6.34706608 22.0509657,5.89598898 C22.0516172,4.19743236 20.6783799,2.77043592 18.982028,2.77043592 L18.9005979,2.77043592 C18.6458845,2.11764706 18.2915007,1.92050482 17.8661099,1.58888808 C18.3937769,1.11431058 19.0836528,0.872778705 19.8171751,0.872778705 C20.8985669,0.873431493 21.8874541,1.52165083 22.3968808,2.48059766 L22.5206546,2.77043592 L22.856798,2.77043592 C24.1036558,2.77043592 25.1179491,3.73917458 25.1179491,4.98926525 C25.1172977,6.23805034 24.1023529,7.20613622 22.8554951,7.20613622 M23.0437615,1.79843331 C22.3512799,0.684122724 21.1376457,0.000652788859 19.8171751,0 C18.7696583,0 17.7905427,0.426271125 17.0843809,1.15935301 C16.6088291,0.945891057 16.0818134,0.785957786 15.5267859,0.785304997 C14.0643012,0.784652209 12.7959459,1.4648582 12.1536253,2.77043592 L12.0708923,2.77043592 C10.3758433,2.77043592 9.00065167,4.19416842 9.00000023,5.89272503 C8.99934879,7.59193443 10.3732375,9 12.068938,9 L18.9794222,8.96083267 C19.840627,8.96083267 20.6177959,8.64553565 21.1754293,7.99274679 L22.8554951,7.99274679 C24.5883277,7.99274679 25.9993486,6.63037644 26,4.89330529 C26,3.21955465 24.6912554,1.89569885 23.0437615,1.79843331" id="Fill-6"></path>
            </g>
        </g>
    </g>
</svg>