<?xml version="1.0" encoding="UTF-8"?>
<svg width="25px" height="25px" viewBox="0 0 25 25" version="1.1" xmlns="http://www.w3.org/2000/svg" xmlns:xlink="http://www.w3.org/1999/xlink">
    <!-- Generator: sketchtool 52.6 (67491) - http://www.bohemiancoding.com/sketch -->
    <title>E1B6EBD1-3BB8-4978-923A-35AA5EE419FD</title>
    <desc>Created with sketchtool.</desc>
    <defs>
        <polygon id="path-1" points="0 9.80392157e-05 24.822549 9.80392157e-05 24.822549 24.822451 0 24.822451"></polygon>
    </defs>
    <g id="Page-1" stroke="none" stroke-width="1" fill="none" fill-rule="evenodd">
        <g id="Esperanza" transform="translate(-265.000000, -113.000000)">
            <g id="mapa" transform="translate(-19.000000, -16.000000)">
                <g id="icono-/-weather_plus_circle" transform="translate(284.000000, 129.000000)">
                    <g id="Group-3">
                        <mask id="mask-2" fill="white">
                            <use xlink:href="#path-1"></use>
                        </mask>
                        <g id="Clip-2"></g>
                        <path d="M12.2135784,20.0989216 C8.04593137,20.0989216 4.6547549,16.7077451 4.6547549,12.5391176 C4.6547549,9.20186275 6.89102941,6.21656863 10.0920098,5.2822549 C10.4758333,5.17098039 10.8728922,5.39107843 10.9846569,5.77196078 C11.0964216,6.15333333 10.8773039,6.55284314 10.4954412,6.66509804 C7.90426471,7.42147059 6.09544118,9.83764706 6.09544118,12.5391176 C6.09544118,15.9126471 8.84004902,18.6587255 12.2135784,18.6587255 C15.5885784,18.6587255 18.3341667,15.9126471 18.3341667,12.5391176 C18.3341667,9.9577451 16.7018137,7.64107843 14.2738725,6.77490196 C13.8988725,6.64058824 13.7037745,6.22931373 13.8366176,5.85480392 C13.9709314,5.47980392 14.3851471,5.28617647 14.7572059,5.41901961 C17.7572059,6.49009804 19.7728922,9.35088235 19.7728922,12.5391176 C19.7728922,16.7077451 16.3817157,20.0989216 12.2135784,20.0989216 Z M12.8459314,16.1552941 L16.1812255,16.1552941 C15.2459314,17.3371569 13.8155392,18.0543137 12.2116176,18.0543137 C10.6081863,18.0543137 9.17730392,17.3371569 8.2425,16.1552941 L11.8748529,16.1552941 C12.0782843,16.042549 12.3601471,15.8234314 12.3322059,15.3984314 C12.2910294,14.7405882 12.0268137,14.4106863 12.0268137,14.4106863 C12.0268137,14.4106863 11.1439706,15.0940196 10.2268137,14.9106863 C9.31014706,14.7273529 8.70034314,14.1028431 8.28171569,13.4866667 C7.36897059,12.1445098 7.29446078,10.6146078 7.29446078,10.6146078 C7.29446078,10.6146078 7.72387255,10.8690196 8.42289216,10.9827451 C9.05573529,11.0851961 9.93710784,11.047451 10.394951,11.0538235 C11.3581863,11.067549 12.0439706,11.6856863 12.3062255,12.2744118 C12.7665196,13.3082353 12.2988725,13.9366667 12.2988725,13.9366667 C12.2988725,13.9366667 12.1155392,13.4386275 11.5753431,13.0013725 C11.0346569,12.5636275 10.5621078,12.3273529 10.072402,12.190098 C9.58220588,12.0518627 8.69593137,12.0376471 8.69593137,12.0376471 C8.69593137,12.0376471 10.0415196,12.3023529 10.7214216,12.7739216 C11.4008333,13.2459804 11.7665196,13.4106863 12.2233824,14.1773529 C12.6792647,14.9445098 12.5194608,15.8543137 12.5194608,15.8543137 C12.5194608,15.8543137 12.5679902,15.5778431 12.8807353,15.1170588 C13.1944608,14.6557843 13.5297549,14.2028431 14.0983824,13.7562745 C14.6675,13.3097059 15.8282843,13.0097059 15.8282843,13.0097059 C15.8282843,13.0097059 15.0552451,13.0680392 14.6351471,13.2126471 C14.2140686,13.3587255 13.8140686,13.5891176 13.3655392,13.9984314 C12.9160294,14.4082353 12.7822059,14.8508824 12.7822059,14.8508824 C12.7822059,14.8508824 12.3415196,14.3273529 12.690049,13.4013725 C12.8890686,12.874902 13.4552451,12.299902 14.294951,12.2386275 C14.6939706,12.2097059 15.465049,12.197451 16.0121078,12.074902 C16.6160294,11.940098 16.9777941,11.6959804 16.9777941,11.6959804 C16.9777941,11.6959804 16.9910294,13.0337255 16.2635784,14.2518627 C15.9297549,14.8111765 15.4297549,15.3856863 14.6395588,15.5930392 C13.8493627,15.8003922 13.0429902,15.2464706 13.0429902,15.2464706 C13.0429902,15.2464706 12.9341667,15.3518627 12.8062255,15.7886275 C12.7498529,15.9788235 12.7866176,16.0989216 12.8459314,16.1552941 Z M11.7013235,3.41754902 C11.7013235,3.0195098 12.0351471,2.69794118 12.4322059,2.69794118 C12.8297549,2.69794118 13.1645588,3.0195098 13.1645588,3.41754902 L13.1645588,8.5945098 C13.1645588,8.99205882 12.8297549,9.31509804 12.4322059,9.31509804 C12.0351471,9.31509804 11.7013235,8.99205882 11.7013235,8.5945098 L11.7013235,3.41754902 Z M12.4111275,-9.80392157e-05 C5.55671569,-9.80392157e-05 -0.000147058824,5.55676471 -0.000147058824,12.4111765 C-0.000147058824,19.2660784 5.55671569,24.822451 12.4111275,24.822451 C19.2660294,24.822451 24.8228922,19.2660784 24.8228922,12.4111765 C24.8228922,5.55676471 19.2660294,-9.80392157e-05 12.4111275,-9.80392157e-05 Z" id="Fill-1" fill="#FFB439" mask="url(#mask-2)"></path>
                    </g>
                </g>
            </g>
        </g>
    </g>
</svg>