<?xml version="1.0" encoding="UTF-8"?>
<svg width="27px" height="27px" viewBox="0 0 27 27" version="1.1" xmlns="http://www.w3.org/2000/svg" xmlns:xlink="http://www.w3.org/1999/xlink">
    <!-- Generator: sketchtool 52.6 (67491) - http://www.bohemiancoding.com/sketch -->
    <title>6ECE4392-A089-44AF-9F68-9BF5150C3684</title>
    <desc>Created with sketchtool.</desc>
    <g id="Page-1" stroke="none" stroke-width="1" fill="none" fill-rule="evenodd">
        <g id="map-general" transform="translate(-325.000000, -737.000000)">
            <g id="Padding-Group-12" transform="translate(4.000000, 724.000000)">
                <g id="menu" transform="translate(10.000000, 10.000000)">
                    <g id="mas" transform="translate(300.000000, 0.000000)">
                        <g id="icono-/-flow" transform="translate(11.000000, 3.000000)">
                            <path d="M3.78884336,10.421714 C1.74675346,10.7304828 4.17140768,10.7986437 5.414305,11.3234824 C6.65720232,11.8483212 5.8318067,10.1129452 3.78884336,10.421714" id="Fill-1" fill="#8F8F94"></path>
                            <path d="M10.0358579,23.0653205 C10.3325027,25.1858495 10.3981321,22.6689684 10.9041346,21.377423 C11.4094809,20.0867845 9.73790054,20.9438846 10.0358579,23.0653205" id="Fill-3" fill="#8F8F94"></path>
                            <path d="M9.879225,5.47524606 C7.91094792,4.60353207 9.79642369,5.93201374 10.2583154,6.94552828 C10.7182118,7.95904282 11.8484997,6.34696005 9.879225,5.47524606" id="Fill-5" fill="#8F8F94"></path>
                            <path d="M4.27210157,17.7789513 C3.43335868,19.8235587 4.71255171,17.8649201 5.68846336,17.386395 C6.664375,16.9078698 5.11084447,15.7343439 4.27210157,17.7789513" id="Fill-7" fill="#8F8F94"></path>
                            <path d="M17.1207876,22.563205 C19.0895299,23.4349514 17.2025692,22.1064203 16.7417997,21.092868 C16.2810302,20.0793158 15.1520453,21.692112 17.1207876,22.563205" id="Fill-9" fill="#8F8F94"></path>
                            <path d="M16.9641421,4.97322967 C16.666841,2.85252127 16.6012116,5.36961528 16.0958654,6.66036295 C15.5905191,7.95201768 17.2620995,7.09484512 16.9641421,4.97322967" id="Fill-11" fill="#8F8F94"></path>
                            <path d="M21.7275307,10.2592392 C22.5669902,8.21473136 21.287664,10.1743103 20.3116507,10.6517764 C19.3356374,11.131314 20.8887005,12.303747 21.7275307,10.2592392" id="Fill-13" fill="#8F8F94"></path>
                            <path d="M20.5861248,16.7149791 C19.3431585,16.1901403 20.166853,17.9255163 22.2108032,17.6167475 C24.2530064,17.3086603 21.8299646,17.2398179 20.5861248,16.7149791" id="Fill-18" fill="#8F8F94"></path>
                            <path d="M23.8553486,17.2542343 C20.6855486,19.1295771 18.2702057,16.0214914 19.5662057,13.9193486 C20.8614343,11.8179771 22.2654343,13.1988343 24.35292,12.1103486 C26.4396343,11.0210914 26.5592057,9.58469143 26.5592057,9.58469143 C26.5592057,9.58469143 27.0266914,15.3812057 23.8553486,17.2542343 M18.2547771,23.6864057 C14.68692,22.7699486 15.1767771,18.8634343 17.5790057,18.29412 C19.9820057,17.7248057 19.9982057,19.6934914 22.2438343,20.3985771 C24.4894629,21.1052057 25.5887486,20.1740914 25.5887486,20.1740914 C25.5887486,20.1740914 21.8210914,24.6036343 18.2547771,23.6864057 M9.74514857,24.2726914 C7.87057714,21.1028914 10.9794343,18.6875486 13.0808057,19.9835486 C15.1829486,21.2787771 13.8020914,22.6827771 14.8913486,24.7702629 C15.9798343,26.8577486 17.4154629,26.9757771 17.4154629,26.9757771 C17.4154629,26.9757771 11.6189486,27.4432629 9.74514857,24.2726914 M4.33897714,7.01737714 C2.09334857,6.31229143 0.993291429,7.24340571 0.993291429,7.24340571 C0.993291429,7.24340571 4.76249143,2.81386286 8.32880571,3.73109143 C11.89512,4.64754857 11.4060343,8.55252 9.00303429,9.12260571 C6.60080571,9.69192 6.58460571,7.72323429 4.33897714,7.01737714 M6.82683429,26.0068629 C6.82683429,26.0068629 2.39652,22.2392057 3.31297714,18.6713486 C4.23020571,15.1034914 8.13517714,15.59412 8.70526286,17.9963486 C9.27534857,20.3985771 7.30666286,20.4155486 6.60003429,22.6611771 C5.89494857,24.9060343 6.82683429,26.0068629 6.82683429,26.0068629 M0.0243771429,17.8320343 C0.0243771429,17.8320343 -0.443108571,12.03552 2.72746286,10.1624914 C5.89649143,8.28792 8.31337714,11.3960057 7.01660571,13.4981486 C5.72060571,15.59952 4.31737714,14.2194343 2.22989143,15.30792 C0.143177143,16.3971771 0.0243771429,17.8320343 0.0243771429,17.8320343 M16.8376629,3.14403429 C18.7122343,6.31383429 15.6041486,8.72994857 13.5020057,7.43317714 C11.3990914,6.13872 12.7822629,4.73394857 11.6922343,2.64646286 C10.6037486,0.56052 9.16734857,0.440948571 9.16734857,0.440948571 C9.16734857,0.440948571 14.9638629,-0.0265371429 16.8376629,3.14403429 M19.7567486,1.41063429 C19.7567486,1.41063429 24.18552,5.17983429 23.2690629,8.74537714 C22.3526057,12.3132343 18.4468629,11.8233771 17.8775486,9.42114857 C17.3074629,7.01892 19.2761486,7.00194857 19.9812343,4.75709143 C20.6878629,2.51069143 19.7567486,1.41063429 19.7567486,1.41063429" id="Fill-15" fill="#8E8E93"></path>
                        </g>
                    </g>
                </g>
            </g>
        </g>
    </g>
</svg>