<?xml version="1.0" encoding="UTF-8"?>
<svg width="50px" height="50px" viewBox="0 0 50 50" version="1.1" xmlns="http://www.w3.org/2000/svg" xmlns:xlink="http://www.w3.org/1999/xlink">
    <!-- Generator: sketchtool 52.6 (67491) - http://www.bohemiancoding.com/sketch -->
    <title>CA450D92-1699-43A9-AE71-E1CF2FAE04B2</title>
    <desc>Created with sketchtool.</desc>
    <defs>
        <polygon id="path-1" points="0 0.000196078431 49.645098 0.000196078431 49.645098 49.644902 0 49.644902"></polygon>
    </defs>
    <g id="Page-1" stroke="none" stroke-width="1" fill="none" fill-rule="evenodd">
        <g id="Perfil-foto" transform="translate(-48.000000, -315.000000)">
            <g id="Group-2" transform="translate(48.000000, 315.000000)">
                <g id="icono-/-weather_plus_circle">
                    <g id="Group-3">
                        <mask id="mask-2" fill="white">
                            <use xlink:href="#path-1"></use>
                        </mask>
                        <g id="Clip-2"></g>
                        <path d="M24.4271569,40.1978431 C16.0918627,40.1978431 9.3095098,33.4154902 9.3095098,25.0782353 C9.3095098,18.4037255 13.7820588,12.4331373 20.1840196,10.5645098 C20.9516667,10.3419608 21.7457843,10.7821569 21.9693137,11.5439216 C22.1928431,12.3066667 21.7546078,13.1056863 20.9908824,13.3301961 C15.8085294,14.8429412 12.1908824,19.6752941 12.1908824,25.0782353 C12.1908824,31.8252941 17.680098,37.317451 24.4271569,37.317451 C31.1771569,37.317451 36.6683333,31.8252941 36.6683333,25.0782353 C36.6683333,19.9154902 33.4036275,15.2821569 28.5477451,13.5498039 C27.7977451,13.2811765 27.407549,12.4586275 27.6732353,11.7096078 C27.9418627,10.9596078 28.7702941,10.5723529 29.5144118,10.8380392 C35.5144118,12.9801961 39.5457843,18.7017647 39.5457843,25.0782353 C39.5457843,33.4154902 32.7634314,40.1978431 24.4271569,40.1978431 Z M25.6918627,32.3105882 L32.362451,32.3105882 C30.4918627,34.6743137 27.6310784,36.1086275 24.4232353,36.1086275 C21.2163725,36.1086275 18.3546078,34.6743137 16.485,32.3105882 L23.7497059,32.3105882 C24.1565686,32.085098 24.7202941,31.6468627 24.6644118,30.7968627 C24.5820588,29.4811765 24.0536275,28.8213725 24.0536275,28.8213725 C24.0536275,28.8213725 22.2879412,30.1880392 20.4536275,29.8213725 C18.6202941,29.4547059 17.4006863,28.2056863 16.5634314,26.9733333 C14.7379412,24.2890196 14.5889216,21.2292157 14.5889216,21.2292157 C14.5889216,21.2292157 15.4477451,21.7380392 16.8457843,21.9654902 C18.1114706,22.1703922 19.8742157,22.094902 20.789902,22.1076471 C22.7163725,22.135098 24.0879412,23.3713725 24.612451,24.5488235 C25.5330392,26.6164706 24.5977451,27.8733333 24.5977451,27.8733333 C24.5977451,27.8733333 24.2310784,26.8772549 23.1506863,26.0027451 C22.0693137,25.1272549 21.1242157,24.6547059 20.1448039,24.3801961 C19.1644118,24.1037255 17.3918627,24.0752941 17.3918627,24.0752941 C17.3918627,24.0752941 20.0830392,24.6047059 21.4428431,25.5478431 C22.8016667,26.4919608 23.5330392,26.8213725 24.4467647,28.3547059 C25.3585294,29.8890196 25.0389216,31.7086275 25.0389216,31.7086275 C25.0389216,31.7086275 25.1359804,31.1556863 25.7614706,30.2341176 C26.3889216,29.3115686 27.0595098,28.4056863 28.1967647,27.512549 C29.335,26.6194118 31.6565686,26.0194118 31.6565686,26.0194118 C31.6565686,26.0194118 30.1104902,26.1360784 29.2702941,26.4252941 C28.4281373,26.717451 27.6281373,27.1782353 26.7310784,27.9968627 C25.8320588,28.8164706 25.5644118,29.7017647 25.5644118,29.7017647 C25.5644118,29.7017647 24.6830392,28.6547059 25.380098,26.8027451 C25.7781373,25.7498039 26.9104902,24.5998039 28.589902,24.4772549 C29.3879412,24.4194118 30.930098,24.394902 32.0242157,24.1498039 C33.2320588,23.8801961 33.9555882,23.3919608 33.9555882,23.3919608 C33.9555882,23.3919608 33.9820588,26.067451 32.5271569,28.5037255 C31.8595098,29.6223529 30.8595098,30.7713725 29.2791176,31.1860784 C27.6987255,31.6007843 26.0859804,30.4929412 26.0859804,30.4929412 C26.0859804,30.4929412 25.8683333,30.7037255 25.612451,31.5772549 C25.4997059,31.9576471 25.5732353,32.1978431 25.6918627,32.3105882 Z M23.4026471,6.83509804 C23.4026471,6.03901961 24.0702941,5.39588235 24.8644118,5.39588235 C25.6595098,5.39588235 26.3291176,6.03901961 26.3291176,6.83509804 L26.3291176,17.1890196 C26.3291176,17.9841176 25.6595098,18.6301961 24.8644118,18.6301961 C24.0702941,18.6301961 23.4026471,17.9841176 23.4026471,17.1890196 L23.4026471,6.83509804 Z M24.8222549,-0.000196078431 C11.1134314,-0.000196078431 -0.000294117647,11.1135294 -0.000294117647,24.8223529 C-0.000294117647,38.5321569 11.1134314,49.644902 24.8222549,49.644902 C38.5320588,49.644902 49.6457843,38.5321569 49.6457843,24.8223529 C49.6457843,11.1135294 38.5320588,-0.000196078431 24.8222549,-0.000196078431 Z" id="Fill-1" fill="#28ABB9" mask="url(#mask-2)"></path>
                    </g>
                </g>
            </g>
        </g>
    </g>
</svg>